<?xml version="1.0" encoding="utf-8"?>
<!-- Generator: Adobe Illustrator 16.0.0, SVG Export Plug-In . SVG Version: 6.00 Build 0)  -->
<!DOCTYPE svg PUBLIC "-//W3C//DTD SVG 1.1//EN" "http://www.w3.org/Graphics/SVG/1.1/DTD/svg11.dtd">
<svg version="1.1" id="Calque_1" xmlns="http://www.w3.org/2000/svg" xmlns:xlink="http://www.w3.org/1999/xlink" x="0px" y="0px"
	 width="595.279px" height="533.717px" viewBox="0 0 595.279 533.717" enable-background="new 0 0 595.279 533.717"
	 xml:space="preserve">
<g>
	<path fill="#5CC1D4" d="M573.195,137.339v309.979c0,5.419-3.919,9.817-8.742,9.817H117.229c-4.829,0-8.744-4.398-8.744-9.817
		V137.339c0-5.425,3.916-9.82,8.744-9.82h447.224C569.276,127.52,573.195,131.915,573.195,137.339z"/>
	<g>
		<path fill="#FAC13E" d="M551.087,119.645v25.137H51.982v-25.137c0-5.187,4.208-9.389,9.39-9.389h480.332
			C546.884,110.256,551.087,114.458,551.087,119.645z"/>
		<g>
			<path fill="#FFFFFF" d="M67.255,127.52c0-2.415,1.95-4.373,4.37-4.373c2.412,0,4.366,1.958,4.366,4.373
				c0,2.414-1.955,4.373-4.366,4.373C69.206,131.892,67.255,129.933,67.255,127.52z"/>
			<circle fill="#FFFFFF" cx="88.846" cy="127.52" r="4.37"/>
			<path fill="#FFFFFF" d="M102.136,127.52c0-2.415,1.95-4.373,4.369-4.373c2.413,0,4.371,1.958,4.371,4.373
				c0,2.414-1.958,4.373-4.371,4.373C104.086,131.892,102.136,129.933,102.136,127.52z"/>
		</g>
	</g>
	<g>
		<path fill="#2D3A64" d="M98.618,363.64c0,0,0.666-7.26-7.438-7.26c0,0,2.452,0.668,3.727,2.001c0,0-5.17-3.034-10.794,1.629
			c-5.627,4.664-2.132,16.359-3.844,18.58c-1.712,2.22-8.374,2.666-7.559,9.845c0.814,7.181,21.145,16.174,19.837,22.111
			c0,0,7.97-11.71,2.271-17.054c0,0,2.776,2.614,3.062,5.725c0,0,0.753-6.069-3.11-8.012c-3.419-1.72-6.219-8.002-5.924-9.123
			C89.144,380.958,98.618,363.64,98.618,363.64z"/>
		<path fill="#FACDA9" d="M90.64,398.467c0,0,6.055,25.051,12,30.057c3.57,3.016,14.191,9.918,14.191,9.918l-4.417,1.603
			c0,0-14.733-4.971-18.031-8.852c-3.301-3.878-12.329-23.314-12.329-23.314L90.64,398.467z"/>
		<path fill="#256388" d="M33.73,442.474c0.055,0.096,0.113,0.19,0.165,0.293c1.326,2.305,4.367,7.951,7.712,14.13
			c1.584,2.921,3.247,5.977,4.817,8.843c2.712,4.956,5.176,9.364,6.618,11.694c1.464,2.372,2.536,4.04,2.976,4.7
			c0,0.006,0,0.006,0,0.006c0.133,0.206,0.16,0.447,0.145,0.692c-0.153,2.085-0.111,4.157,0.096,6.206
			c2.017,20.094,15.562,30.855,15.562,30.855l4.033,0.602c0,0-5.702-21.119-7.378-33.063c-0.287-2.021-0.412-3.663-0.308-4.729
			c0.296-3.112-0.258-7.682-1.307-12.919c-1.858-9.321-5.268-20.757-8.234-29.913c-0.188-0.582-5.851-21.073-5.851-21.073
			c-4.757,4.151-22.101,5.868-22.101,5.868S27.74,431.818,33.73,442.474z"/>
		<path fill="#234476" d="M84.304,525.586H67.492c0,0-0.401-2.557,0.475-4.505c0.841-1.86,2.04-1.922,0.157-4.847
			c1.065,1.096,4.501,1.554,6.932,1.226c0.298,0.483,1.921,3.726,2.914,4.442C79.067,522.689,83.965,522.403,84.304,525.586z"/>
		<path fill="#243862" d="M33.73,442.474c0.055,0.096,0.113,0.19,0.165,0.293c1.326,2.305,8.495,15.546,11.846,21.723
			c-3.884-15.966-1.185-31.925-1.185-31.925L33.73,442.474z"/>
		<path fill="#2D3A64" d="M96.329,362.618c0.107-0.443-9.607,4.388-10.099,4.934c-4.555,5.055-3.256,11.645-0.646,11.708
			c1.671,0.042,1.344,2.821,1.344,2.821l18.622-7.878C105.55,374.204,103.306,361.129,96.329,362.618z"/>
		<path fill="#FAC13E" d="M90.066,394.705c0,0,2.833,5.658,2.481,10.254c0,0-3.415,5.389-12.278,6.76
			C80.269,411.719,87.885,394.699,90.066,394.705z"/>
		<path fill="#256388" d="M46.837,425.916l0.055-3.145c-6.263,0.789-21.599-7.488-21.599-7.488s-6.555,4.363-7.45,16.809
			c-0.438,6.083-3.209,31.776-3.516,39.445c-0.113,2.782-0.149,4.771-0.163,5.563c0,0,0,0,0,0.007c0,0.242-0.114,0.452-0.262,0.651
			c-1.301,1.646-2.428,3.389-3.396,5.196c-9.56,17.793-4.56,41.953-4.56,41.953l2.218-0.564c0,0,8.081-25.054,13.366-35.885
			c0.897-1.84,1.711-3.274,2.392-4.098c1.987-2.414,4.083-6.509,6.146-11.439C33.97,463.599,46.837,425.916,46.837,425.916z"/>
		<path fill="#234476" d="M19.314,525.586H2.504c0,0-0.404-2.557,0.473-4.505c0.842-1.86,2.159-2.711,1.843-4.968
			c1.068,1.098,2.811,2.333,5.242,2.003c0.297,0.484,1.921,3.068,2.916,3.786C14.076,522.689,18.975,522.403,19.314,525.586z"/>
		<path fill="#FAC13E" d="M79.133,415.332c-2.255,0.382,0.369,2.182-2.741,2.509c-4.417,0.489-8.982,0.821-11.368,1.772
			c-0.878,0.353-1.457,0.775-1.643,1.329c-1.032,3.11-7.596,8.47-7.596,8.47c-29.275-1.334-31.16-14.382-31.16-14.382
			c18.999-18.452,35.164-28.51,48.52-29.754c3.248-0.305,7.636,0.104,9.692,1.021c4.672,2.08,7.229,8.409,7.229,8.409
			S87.714,413.862,79.133,415.332z"/>
		<path fill="#EE7D2C" d="M76.393,417.84c-4.417,0.489-8.982,0.821-11.368,1.772c-0.98-14.604,5.914-25.586,5.914-25.586
			S75.427,412.318,76.393,417.84z"/>
		<path fill="#FACDA9" d="M82.585,387.5c0.835,2.617,3.619,10.077,7.48,7.205c-0.132-0.556,0.686-2.177,1.641-3.817
			c1.221-2.104,2.677-4.25,2.677-4.25l-6.293-5.511l-0.376-0.332c-1.648,2.874-3.264,4.258-4.678,5.317
			C82.606,386.429,82.424,386.983,82.585,387.5z"/>
		<path fill="#EE9960" d="M94.383,386.642c0,0-1.456,2.142-2.677,4.246c-3.914-2.414-3.914-7.255-3.614-9.762L94.383,386.642z"/>
		<path fill="#FACDA9" d="M94.556,389.401c0,0-9.498-5.283-6.115-11.145c3.382-5.867,4.436-10.494,10.642-7.369
			c6.203,3.125,6.083,6.035,5.431,8.266C103.86,381.386,97.116,390.624,94.556,389.401z"/>
		<path fill="#2D3A64" d="M106.116,375.737c-0.434-2.605-1.758-2.854-2.678-2.68c-3.507-5.8-9.237-3.533-9.237-3.533
			c-3.06,3.836-7.485,4.49-7.485,4.49s1.104,2.051,5.644,3.322c1.388,0.387,2.961,0.15,4.479-0.357
			c-3.152,1.756-6.444,2.43-6.444,2.43c5.983,0.546,11.673-4.924,12.269-5.508c0.275,0.847,0.759,2.621,0.47,3.918
			c-0.396,1.765-1.958,4.957-1.003,5.371C102.127,383.19,106.768,379.638,106.116,375.737z"/>
		<g>
			
				<rect x="121.338" y="467.273" transform="matrix(-0.8988 -0.4383 0.4383 -0.8988 95.9199 977.3518)" fill="#256388" width="78.832" height="20.665"/>
			<g>
				<path fill="#256388" d="M98.65,473.477c-6.503-3.164-11.125-9.04-12.674-16.115c-0.637-2.874,1.184-5.713,4.057-6.339
					c2.864-0.64,5.706,1.183,6.34,4.053c0.853,3.88,3.386,7.095,6.948,8.838c6.387,3.114,14.12,0.445,17.237-5.938
					c3.116-6.395,0.449-14.126-5.941-17.238c-2.897-1.417-6.203-1.694-9.294-0.782c-2.82,0.831-5.783-0.779-6.617-3.597
					c-0.833-2.824,0.779-5.785,3.598-6.612c5.65-1.67,11.682-1.166,16.98,1.417c11.671,5.685,16.533,19.806,10.843,31.477
					C124.438,474.299,110.32,479.165,98.65,473.477z"/>
			</g>
			<g>
				<path fill="#256388" d="M198.884,522.345c-11.668-5.685-16.528-19.806-10.844-31.474c5.688-11.671,19.811-16.531,31.477-10.845
					c5.301,2.579,9.414,7.021,11.581,12.503c1.074,2.734-0.266,5.822-3.001,6.904c-2.729,1.083-5.824-0.257-6.903-2.985
					c-1.186-3.007-3.44-5.44-6.338-6.857c-6.394-3.109-14.128-0.441-17.243,5.944c-3.113,6.395-0.45,14.127,5.938,17.239
					c3.562,1.737,7.659,1.747,11.241,0.031c2.649-1.268,5.829-0.151,7.099,2.502c1.271,2.648,0.154,5.824-2.496,7.096
					C212.866,525.537,205.389,525.518,198.884,522.345z"/>
			</g>
			<path fill="#243862" d="M175.223,487.666l-37.326-18.197c-1.068-0.521-1.518-1.822-0.995-2.896l0.947-1.948
				c0.523-1.071,1.826-1.517,2.897-0.993l37.329,18.196c1.065,0.523,1.518,1.826,0.994,2.898l-0.947,1.944
				C177.598,487.746,176.298,488.19,175.223,487.666z"/>
		</g>
		<path fill="#FACDA9" d="M89.122,454.603c0,0,0.204,1.772,0.946,2.688c0.751,0.911,2.928,3.12,2.965,4.417
			c0,0-0.106,0.58-0.571,0.472c-0.472-0.104-2.093-1.711-2.921-1.598c0,0,0.439,2.598,0.883,3.328
			c0.441,0.724,1.247,3.479,0.987,4.115c-0.267,0.631-4.67-3.044-6.008-4.839c-1.332-1.793-0.016-9.067-0.016-9.067L89.122,454.603z
			"/>
		<path fill="#FACDA9" d="M80.21,391.562c0,0-11.12-0.608-13.093,6.371c-1.973,6.979,3.707,34.835,4.929,37.712
			c2.233,5.23,13.085,20.176,13.085,20.176l3.99-1.219c0,0-7.237-22.82-8.854-25.08C77.735,425.981,83.538,394.595,80.21,391.562z"
			/>
		<path fill="#FAC13E" d="M64.926,407.267c0.029,0.162,10.52,1.929,17.081-1.401c0,0,5.486-17.177-2.352-16.353
			c-7.838,0.82-12.47,3.289-12.674,7.035C66.789,400.302,64.926,407.267,64.926,407.267z"/>
		<path fill="#FACDA9" d="M111.374,427.276c-0.525,0.023-1.497,0.195-1.845,0.464c-0.604,0.465-1.286,1.276,0.072,1.953
			c2.035,1.021,6.113,0.566,5.951-0.046C115.057,427.723,114.316,427.134,111.374,427.276z"/>
	</g>
	<g>
		<path fill="#FACDA9" d="M169.944,153.894c-0.53,0.612-0.603,1.298-0.335,2.031c0,0.004,0,0.01,0.003,0.011
			c0.49,1.357,2.111,2.87,3.992,4.381c0.244,0.194,0.457,0.371,0.644,0.533c0.053,0.045,0.101,0.088,0.146,0.133
			c0.038,0.032,0.072,0.064,0.109,0.099c1.756,1.619,1.096,1.988,4.25,5.272c3.595,3.743,6.076,3.81,6.777,3.468
			c0.598-0.29-0.615-2.273-1.958-4.506c-0.066-0.105-0.127-0.215-0.193-0.324c-0.178-0.298-0.358-0.599-0.536-0.896
			c-1.57-2.685-1.167-3.945-0.795-7.939c0.305-3.247,5.051-18.137,5.051-18.137l-6.894-1.188c0,0-2.075,11.857-4.361,13.681
			c-1.223,0.974-2.592,0.986-3.768,1.711c-0.082,0.049-0.164,0.099-0.244,0.153C171.167,152.82,170.485,153.276,169.944,153.894z"/>
		<path fill="#243862" d="M169.944,153.894c-0.53,0.612-0.603,1.298-0.335,2.031c0,0.004,0,0.01,0.003,0.011
			c0.603,1.355,2.184,2.86,4.004,4.368c0.235,0.198,0.445,0.379,0.632,0.546c0.053,0.045,0.101,0.088,0.146,0.133
			c0.038,0.032,0.072,0.064,0.109,0.099c1.756,1.619,1.096,1.988,4.25,5.272c3.595,3.743,6.076,3.81,6.777,3.468
			c0.598-0.29-0.615-2.273-1.958-4.506c-0.702-0.255-3.952-1.574-6.408-4.721c-2.168-2.765-3.611-6.316-5.087-8.37
			c-0.082,0.049-0.164,0.099-0.244,0.153C171.167,152.82,170.485,153.276,169.944,153.894z"/>
		<path fill="#FACDA9" d="M225.521,149.589c0.424,2.126,3.459,1.771,6.849,0.944c3.388-0.831,2.584,0.154,7.401-0.379
			c4.824-0.533,6.28-2.331,6.432-3.05c0.132-0.635-2.25-0.858-4.809-1.154c-0.317-0.035-0.639-0.075-0.966-0.116
			c-2.889-0.36-5-2.222-7.616-3.752c-2.483-1.448-6.188-7.349-6.188-7.349l-6.614,0.522c0,0,3.471,5.273,4.811,7.566
			c0.793,1.345,0.748,3.127,0.652,4.503C225.419,148.074,225.37,148.839,225.521,149.589z"/>
		<path fill="#243862" d="M232.368,150.534c3.388-0.831,2.584,0.154,7.401-0.379c4.824-0.533,6.28-2.331,6.432-3.05
			c0.132-0.635-2.25-0.858-4.809-1.154l-0.021,0.05c0,0-2.895,2.05-6.907,2.147c-3.272,0.079-6.735-0.858-8.992-0.823
			c-0.053,0.75-0.103,1.515,0.048,2.265C225.944,151.716,228.98,151.36,232.368,150.534z"/>
		<path fill="#2D3A64" d="M200.178,107.304L194,123.937l-8.071,21.721c0,0-2.194,0.211-4.288-0.393
			c-1.931-0.557-4.148-2.018-4.148-2.018s2.24-23.321,6.422-36.709c1.069-3.435,2.271-6.214,3.595-7.779
			C193.988,91.1,200.178,107.304,200.178,107.304z"/>
		<path fill="#1A2944" d="M193.894,80.886c-4.049-1.305-15.601,0.373-27.202,2.643l-2.431-4.007L139.2,77.564
			c0,0-8.271,18.339-3.744,30.025c0.668,1.718,1.984,2.821,4.241,2.857c0.004,0,0.367-0.001,0.367-0.001s14.918-0.008,19.761-0.008
			c12.462,0,26.377-8.567,28.179-8.93c2.941-0.588,4.123,5.305,7.067,11.491c2.95,6.188,27.693,27.4,27.693,27.4
			s3.805,0.039,5.375-0.551c1.693-0.634,2.308-1.458,2.308-1.458S203.031,83.834,193.894,80.886z"/>
		<path fill="#246287" d="M155.959,3.225c-3.517-0.904-8.323-0.003-9.119,0.077c-9.538,0.938-12.74,11.576-11.297,19.827
			c1.335,7.618-2.528,9.724-7.009,15.742c-8.979,12.061-3.107,22.231,3.977,24.855c4.247,1.573,10.148-2.396,10.148-2.396
			c0.108,0.044,18.542-12.077,26.101-18.908C181.344,37.496,164.908,5.526,155.959,3.225z"/>
		<path fill="#FACDA9" d="M157.365,38.112c0.248,0.883-3.922,2.507-7.105,1.908c-2.995-0.556-6.354-4.063-5.661-4.392
			c1.146-0.547,1.918-1.9,1.292-9.225l0.57,0.065l9.586,1.093c0,0,0.027,2.986,0.252,5.782
			C156.484,35.692,156.957,36.674,157.365,38.112z"/>
		<path fill="#EE985E" d="M156.046,27.562c0,0,0.026,2.986,0.252,5.782c-5.293,0.285-8.477-4.3-9.838-6.875L156.046,27.562z"/>
		<path fill="#FACDA9" d="M158.026,30.066c0,0-12.473,1.23-13.117-6.549c-0.647-7.777-2.696-12.856,5.242-13.969
			c7.936-1.115,9.729,1.725,10.575,4.268C161.575,16.359,161.251,29.546,158.026,30.066z"/>
		<path fill="#246287" d="M156.689,8.319c0,0-1.57,9.5-8.676,11.755c-5.176,1.643-7.527,0.561-7.527,0.561s2.494-3.308,3.383-7.905
			c0.26-1.354,1.226-2.469,2.536-2.901C150.088,8.62,154.547,5.306,156.689,8.319z"/>
		<path fill="#2C488C" d="M154.337,10.347c0,0,2.352,0.522,4.432,3.556c1.139,1.656,2.457,5.834,2.231,7.683
			c0,0,2.188-8.794-0.996-12.063C156.627,6.051,154.337,10.347,154.337,10.347z"/>
		<path fill="#FAC13E" d="M134.912,63.662c0.217,0.946,0.41,1.813,0.564,2.615c0.251,1.294,0.429,2.41,0.554,3.394
			c0.38,3.066,0.269,4.885,0.522,6.872c0.144,1.11,0.4,2.278,0.932,3.741c0.518,1.423,14.066,2.693,21.776,2.181
			c2.446-0.157,4.314-0.502,4.974-1.072c2.754-2.389,2.479,2.865,2.857-22.271c0.177-12.261-10.405-23.184-10.405-23.184
			s-0.843,5.24-11.345-0.995c-0.374-0.219-4.507,5.906-8.484,13.444C132.472,56.715,133.676,58.475,134.912,63.662z"/>
		<path fill="#1A2944" d="M194,123.937l-8.071,21.721c0,0-2.194,0.211-4.288-0.393c-1.931-0.557-4.148-2.018-4.148-2.018
			s2.24-23.321,6.422-36.709L194,123.937z"/>
		<path fill="#FAC13E" d="M156.689,35.936c0,0,10.804,1.832,12.071,6.485c1.269,4.652,10.031,30.662,10.031,30.662
			s-6.789,2.319-9.328-0.218c-2.536-2.537-8.83-23.538-8.83-23.538L156.689,35.936z"/>
		<path fill="#FFFFFF" d="M155.145,25.48c0,0,0.522,1.277,1.903,1.277c1.384,0,1.756-0.208,2.013-0.498
			c0.266-0.294,0.523-0.858,0.523-0.858S157.297,24.95,155.145,25.48z"/>
		<path fill="#EE7D2C" d="M136.032,69.671c0.379,3.066,0.268,4.885,0.521,6.872c9.806,0.032,22.923-7.575,22.923-7.575
			L136.032,69.671z"/>
		<path fill="#EE7D2C" d="M159.478,62.536c0,0-15.282-0.455-17.854-9.142c-2.831-9.542-6.001,3.925-6.001,3.925l1.685,8.592h16.769
			L159.478,62.536z"/>
		<g>
			<path fill="#5CC1D4" d="M186.114,38.968l-0.827-2.046c-0.881-2.194-3.009-3.627-5.375-3.627h-15.234v9.665v41.267h63.017V42.959
				h-35.66C189.431,42.959,187.09,41.38,186.114,38.968z"/>
			<g>
				<path fill="#FFFFFF" d="M174.186,64.266v-3.672l12.873-5.64v3.751l-8.994,3.697l8.994,3.701v3.804L174.186,64.266z"/>
				<path fill="#FFFFFF" d="M200.438,50.563h3.435L192.086,75.2h-3.432L200.438,50.563z"/>
				<path fill="#FFFFFF" d="M218.187,60.594v3.672l-12.875,5.641v-3.752l8.989-3.696l-8.989-3.698v-3.806L218.187,60.594z"/>
			</g>
		</g>
		<path fill="#FACDA9" d="M159.471,64.548l1.107-1.735c0,0,0.875-0.285,2.105-1.147c1.456-1.025,1.266-2.56,1.992-2.397l0.008,3.373
			l-0.077,0.012c3.131,0.834,6.794-0.072,6.866,0.707c0.202,2.144-1.459,3.11-2.844,3.782c-1.066,0.515-2.276,1.287-4.199,0.688
			c-1.404-0.437-3.614-0.882-3.614-0.882L159.471,64.548z"/>
		<path fill="#FAC13E" d="M145.341,34.943c0,0-9.92,0.649-12.397,4.518c-2.48,3.87-5.553,23.511-4.267,30.255
			c1.292,6.749,33.052-1.29,33.052-1.29l-1.007-5.853c0,0-18.336,0.109-19.379-2.281C139.952,57.119,145.341,34.943,145.341,34.943z
			"/>
		<path fill="#FACDA9" d="M193.225,42.939c-0.088,0.255,1.488,2.853,3.746,2.404c1.4-0.283,3.229-3.308,1.624-3.972
			C195.917,40.258,193.452,42.25,193.225,42.939z"/>
	</g>
	<g>
		<g>
			
				<rect x="308.269" y="105.641" transform="matrix(-0.8854 -0.4648 0.4648 -0.8854 514.276 416.3049)" fill="#2C4F96" width="0.375" height="78.231"/>
		</g>
		<g>
			
				<rect x="410.601" y="132.4" transform="matrix(-0.6798 -0.7334 0.7334 -0.6798 643.6521 546.1951)" fill="#2C4F96" width="60.916" height="0.378"/>
		</g>
		<g>
			<path fill="#FFFFFF" d="M487.491,167.975c0.609,4.475-0.612,8.789-3.096,12.136c-2.472,3.347-6.19,5.72-10.562,6.321
				l-185.151,25.44c-9.448,1.296-18.187-4.962-19.415-13.911c-0.613-4.475,0.756-8.808,3.466-12.185s6.756-5.797,11.481-6.447
				l185.148-25.44C478.103,152.687,486.261,159.025,487.491,167.975z"/>
			<path fill="#FAC13E" d="M487.491,167.975c0.609,4.475-0.612,8.789-3.096,12.136c-2.472,3.347-6.19,5.72-10.562,6.321
				l-33.505,4.604l-4.474-32.544l33.508-4.603C478.103,152.687,486.261,159.025,487.491,167.975z"/>
			<g>
				<g>
					<path fill="#FFFFFF" d="M467.096,176.806c-0.412,0.055-0.829,0.081-1.257,0.077c-2.235-0.025-4.323-0.922-5.887-2.521
						c-3.226-3.301-3.165-8.611,0.138-11.836l0,0c3.303-3.226,8.612-3.164,11.837,0.136c3.224,3.304,3.162,8.611-0.136,11.837
						C470.493,175.766,468.859,176.563,467.096,176.806z M461.054,163.513c-2.763,2.692-2.811,7.128-0.113,9.885
						c1.306,1.337,3.052,2.083,4.922,2.107c1.863,0.021,3.631-0.687,4.965-1.99c2.754-2.695,2.809-7.13,0.113-9.89
						C468.245,160.868,463.81,160.815,461.054,163.513L461.054,163.513z"/>
				</g>
				
					<rect x="455.668" y="172.165" transform="matrix(-0.6978 -0.7163 0.7163 -0.6978 647.4092 628.8734)" fill="#FFFFFF" width="1.377" height="11.42"/>
				<path fill="#FFFFFF" d="M449.437,184.639L449.437,184.639c-0.476-0.485-0.471-1.266,0.021-1.742l4.812-4.7
					c0.488-0.476,1.267-0.468,1.739,0.017l0,0c0.476,0.488,0.466,1.268-0.021,1.743l-4.806,4.704
					C450.688,185.134,449.912,185.124,449.437,184.639z"/>
			</g>
		</g>
	</g>
	<g>
		<path fill="#FAC13E" d="M176.571,344.802h-38.682c-0.809,0-1.456-0.654-1.456-1.459v-0.613c0-0.806,0.647-1.459,1.456-1.459
			h38.682c0.805,0,1.459,0.653,1.459,1.459v0.613C178.03,344.147,177.375,344.802,176.571,344.802z"/>
		<g>
			<path fill="#256388" d="M156.724,356.938h-19.087c-0.663,0-1.204-0.543-1.204-1.205l0,0c0-0.666,0.541-1.205,1.204-1.205h19.087
				c0.663,0,1.204,0.539,1.204,1.205l0,0C157.927,356.396,157.387,356.938,156.724,356.938z"/>
			<g>
				<path fill="#256388" d="M171.339,351.886h-33.79c-0.615,0-1.117-0.505-1.117-1.123v-0.166c0-0.615,0.501-1.119,1.117-1.119
					h33.79c0.619,0,1.117,0.504,1.117,1.119v0.166C172.456,351.381,171.958,351.886,171.339,351.886z"/>
				<path fill="#256388" d="M208.299,351.886h-31.477c-0.599,0-1.088-0.482-1.088-1.083v-0.243c0-0.601,0.489-1.082,1.088-1.082
					h31.477c0.594,0,1.08,0.481,1.08,1.082v0.243C209.379,351.403,208.893,351.886,208.299,351.886z"/>
				<path fill="#256388" d="M180.527,356.938h-19.084c-0.669,0-1.208-0.543-1.208-1.205l0,0c0-0.666,0.539-1.205,1.208-1.205h19.084
					c0.666,0,1.207,0.539,1.207,1.205l0,0C181.733,356.396,181.192,356.938,180.527,356.938z"/>
			</g>
		</g>
		<path fill="#FAC13E" d="M223.674,344.802h-38.682c-0.808,0-1.463-0.654-1.463-1.459v-0.613c0-0.806,0.656-1.459,1.463-1.459
			h38.682c0.804,0,1.46,0.653,1.46,1.459v0.613C225.134,344.147,224.478,344.802,223.674,344.802z"/>
	</g>
	<g>
		<path fill="#FAC13E" d="M176.571,371.373h-38.682c-0.809,0-1.456-0.653-1.456-1.456v-0.616c0-0.806,0.647-1.457,1.456-1.457
			h38.682c0.805,0,1.459,0.65,1.459,1.457v0.616C178.03,370.72,177.375,371.373,176.571,371.373z"/>
		<g>
			<path fill="#256388" d="M156.724,383.511h-19.087c-0.663,0-1.204-0.542-1.204-1.205l0,0c0-0.668,0.541-1.205,1.204-1.205h19.087
				c0.663,0,1.204,0.537,1.204,1.205l0,0C157.927,382.969,157.387,383.511,156.724,383.511z"/>
			<g>
				<path fill="#256388" d="M171.339,378.459h-33.79c-0.615,0-1.117-0.504-1.117-1.122v-0.167c0-0.621,0.501-1.119,1.117-1.119
					h33.79c0.619,0,1.117,0.499,1.117,1.119v0.167C172.456,377.955,171.958,378.459,171.339,378.459z"/>
				<path fill="#256388" d="M208.299,378.459h-31.477c-0.599,0-1.088-0.487-1.088-1.086v-0.241c0-0.599,0.489-1.082,1.088-1.082
					h31.477c0.594,0,1.08,0.482,1.08,1.082v0.241C209.379,377.972,208.893,378.459,208.299,378.459z"/>
				<path fill="#256388" d="M180.527,383.511h-19.084c-0.669,0-1.208-0.542-1.208-1.205l0,0c0-0.668,0.539-1.205,1.208-1.205h19.084
					c0.666,0,1.207,0.537,1.207,1.205l0,0C181.733,382.969,181.192,383.511,180.527,383.511z"/>
			</g>
		</g>
		<path fill="#FAC13E" d="M223.674,371.373h-38.682c-0.808,0-1.463-0.653-1.463-1.456v-0.616c0-0.806,0.656-1.457,1.463-1.457
			h38.682c0.804,0,1.46,0.65,1.46,1.457v0.616C225.134,370.72,224.478,371.373,223.674,371.373z"/>
	</g>
	<g>
		<polygon fill="#1A2944" points="377.631,209.869 355.539,215.008 344.617,234.886 336.276,189.586 		"/>
		
			<rect x="357.74" y="209.499" transform="matrix(-0.797 0.6039 -0.6039 -0.797 780.08 180.1949)" fill="#1A2944" width="4.041" height="23.361"/>
	</g>
	<g>
		<path opacity="0.4" fill="#FFFFFF" enable-background="new    " d="M363.171,303.509h-54.322c-2.202,0-3.98-1.783-3.98-3.982
			v-54.32c0-2.201,1.778-3.981,3.98-3.981h54.322c2.195,0,3.979,1.78,3.979,3.981v54.32
			C367.15,301.728,365.366,303.509,363.171,303.509z"/>
		<g>
			<path fill="#256388" d="M312.823,290.479l12.104-21.821c1.405-2.536,4.973-2.762,6.691-0.419l6.979,9.521
				c1.488,2.023,4.454,2.184,6.151,0.331l0,0c1.758-1.92,4.86-1.664,6.279,0.526l7.527,11.631c1.719,2.646-0.185,6.145-3.341,6.145
				h-38.91C313.271,296.394,311.35,293.135,312.823,290.479z"/>
			<path fill="#256388" d="M336.709,258.465c0-2.63,2.13-4.762,4.762-4.762c2.627,0,4.758,2.132,4.758,4.762
				c0,2.627-2.131,4.761-4.758,4.761C338.839,263.226,336.709,261.092,336.709,258.465z"/>
		</g>
	</g>
	<g>
		<path opacity="0.4" fill="#FFFFFF" enable-background="new    " d="M442.851,305.187l-53.826,7.344
			c-2.174,0.297-4.181-1.229-4.479-3.407l-7.342-53.826c-0.301-2.178,1.227-4.187,3.404-4.482l53.822-7.342
			c2.18-0.296,4.188,1.228,4.485,3.407l7.343,53.823C446.552,302.883,445.029,304.89,442.851,305.187z"/>
		<g>
			<path fill="#256388" d="M391.202,299.084l9.048-23.256c1.054-2.707,4.556-3.413,6.571-1.322l8.201,8.491
				c1.746,1.807,4.709,1.564,6.138-0.501l0,0c1.483-2.144,4.595-2.306,6.291-0.329l9.037,10.504
				c2.057,2.393,0.646,6.114-2.479,6.542l-38.559,5.259C392.445,304.878,390.107,301.913,391.202,299.084z"/>
			<circle fill="#256388" cx="415.261" cy="263.488" r="4.761"/>
		</g>
	</g>
	<g>
		<rect x="253.195" y="497.604" fill="#FAC13E" width="31.392" height="26.91"/>
		<rect x="251.932" y="496.453" fill="#B0C1E5" width="33.719" height="2.08"/>
		<rect x="253.195" y="504.881" fill="#F9DDBF" width="31.392" height="8.551"/>
	</g>
	<path fill="#FAC13E" d="M322.778,524.535H293.14c-1.085,0-1.968-0.874-1.968-1.965v-3.287c0-1.167,1.018-2.082,2.183-1.953
		l29.641,3.293c0.994,0.107,1.75,0.953,1.75,1.947l0,0C324.745,523.661,323.862,524.535,322.778,524.535z"/>
	<g id="fond_video_2_">
		<g>
			<defs>
				<polygon id="SVGID_1_" points="136.777,226.216 135.724,240.496 261,241.225 261,311.41 289.852,311.169 288.968,220.758 				
					"/>
			</defs>
			<clipPath id="SVGID_2_">
				<use xlink:href="#SVGID_1_"  overflow="visible"/>
			</clipPath>
			<path clip-path="url(#SVGID_2_)" fill="#256388" d="M271,305.955h-3.412c-0.311,0-0.562-0.249-0.562-0.562
				c0-0.309,0.252-0.562,0.562-0.562h3.394c0.311,0,0.57,0.254,0.57,0.562C271.551,305.707,271.312,305.955,271,305.955z
				 M264.198,305.955h-3.396c-0.311,0-0.56-0.249-0.56-0.562c0-0.309,0.249-0.562,0.56-0.562h3.396c0.309,0,0.56,0.254,0.56,0.562
				C264.756,305.707,264.505,305.955,264.198,305.955z M257.41,305.955h-3.394c-0.313,0-0.56-0.249-0.56-0.562
				c0-0.309,0.246-0.562,0.56-0.562h3.394c0.308,0,0.558,0.254,0.558,0.562C257.968,305.707,257.718,305.955,257.41,305.955z
				 M250.624,305.955h-3.391c-0.308,0-0.567-0.249-0.567-0.562c0-0.309,0.26-0.562,0.567-0.562h3.391
				c0.311,0,0.562,0.254,0.562,0.562C251.187,305.707,250.935,305.955,250.624,305.955z M243.843,305.955h-3.396
				c-0.312,0-0.56-0.249-0.56-0.562c0-0.309,0.247-0.562,0.56-0.562h3.396c0.308,0,0.56,0.254,0.56,0.562
				C244.402,305.707,244.15,305.955,243.843,305.955z M237.053,305.955h-3.39c-0.313,0-0.565-0.249-0.565-0.562
				c0-0.309,0.251-0.562,0.565-0.562h3.39c0.311,0,0.565,0.254,0.565,0.562C237.618,305.707,237.364,305.955,237.053,305.955z
				 M230.269,305.955h-3.39c-0.312,0-0.562-0.249-0.562-0.562c0-0.309,0.25-0.562,0.562-0.562h3.39c0.312,0,0.562,0.254,0.562,0.562
				C230.832,305.707,230.58,305.955,230.269,305.955z M223.485,305.955h-3.39c-0.316,0-0.568-0.249-0.568-0.562
				c0-0.309,0.252-0.562,0.568-0.562h3.39c0.309,0,0.561,0.254,0.561,0.562C224.045,305.707,223.793,305.955,223.485,305.955z
				 M216.699,305.955h-3.392c-0.312,0-0.564-0.249-0.564-0.562c0-0.309,0.252-0.562,0.564-0.562h3.392
				c0.312,0,0.564,0.254,0.564,0.562C217.264,305.707,217.012,305.955,216.699,305.955z M209.917,305.955h-3.398
				c-0.308,0-0.558-0.249-0.558-0.562c0-0.309,0.25-0.562,0.558-0.562h3.398c0.309,0,0.558,0.254,0.558,0.562
				C210.475,305.707,210.226,305.955,209.917,305.955z M203.131,305.955h-3.392c-0.314,0-0.567-0.249-0.567-0.562
				c0-0.309,0.252-0.562,0.567-0.562h3.392c0.311,0,0.562,0.254,0.562,0.562C203.694,305.707,203.441,305.955,203.131,305.955z
				 M196.342,305.955h-3.395c-0.311,0-0.557-0.249-0.557-0.562c0-0.309,0.246-0.562,0.557-0.562h3.395
				c0.315,0,0.565,0.254,0.565,0.562C196.907,305.707,196.657,305.955,196.342,305.955z M189.558,305.955h-3.394
				c-0.309,0-0.561-0.249-0.561-0.562c0-0.309,0.252-0.562,0.561-0.562h3.394c0.311,0,0.562,0.254,0.562,0.562
				C190.12,305.707,189.868,305.955,189.558,305.955z M182.773,305.955h-3.393c-0.312,0-0.563-0.249-0.563-0.562
				c0-0.309,0.252-0.562,0.563-0.562h3.393c0.313,0,0.562,0.254,0.562,0.562C183.335,305.707,183.087,305.955,182.773,305.955z
				 M175.99,305.955h-3.396c-0.308,0-0.561-0.249-0.561-0.562c0-0.309,0.252-0.562,0.561-0.562h3.396
				c0.31,0,0.562,0.254,0.562,0.562C176.552,305.707,176.3,305.955,175.99,305.955z M169.203,305.955h-3.392
				c-0.312,0-0.562-0.249-0.562-0.562c0-0.309,0.25-0.562,0.562-0.562h3.392c0.311,0,0.567,0.254,0.567,0.562
				C169.771,305.707,169.514,305.955,169.203,305.955z M162.417,305.955h-3.392c-0.311,0-0.564-0.249-0.564-0.562
				c0-0.309,0.254-0.562,0.564-0.562h3.392c0.312,0,0.562,0.254,0.562,0.562C162.979,305.707,162.73,305.955,162.417,305.955z
				 M155.636,305.955h-3.024c-0.139,0-0.271-0.005-0.403-0.011c-0.311-0.021-0.546-0.289-0.528-0.596
				c0.021-0.311,0.286-0.55,0.597-0.525c0.111,0.008,0.224,0.008,0.334,0.008h3.024c0.311,0,0.562,0.254,0.562,0.562
				C156.198,305.707,155.946,305.955,155.636,305.955z M274.197,304.968c-0.181,0-0.357-0.085-0.469-0.244
				c-0.17-0.257-0.104-0.604,0.153-0.781c0.852-0.582,1.51-1.394,1.892-2.346c0.12-0.289,0.445-0.425,0.731-0.311
				c0.287,0.117,0.425,0.443,0.308,0.732c-0.464,1.161-1.26,2.148-2.303,2.854C274.412,304.937,274.306,304.968,274.197,304.968z
				 M149.117,304.769c-0.122,0-0.241-0.041-0.346-0.117c-0.995-0.771-1.732-1.801-2.127-2.987c-0.101-0.297,0.059-0.616,0.355-0.711
				c0.292-0.101,0.609,0.058,0.706,0.353c0.327,0.975,0.935,1.822,1.749,2.454c0.246,0.191,0.294,0.542,0.103,0.791
				C149.446,304.692,149.281,304.769,149.117,304.769z M276.711,299.031c-0.311,0-0.565-0.255-0.565-0.563v-3.393
				c0-0.311,0.255-0.561,0.565-0.561c0.308,0,0.558,0.25,0.558,0.561v3.393C277.269,298.776,277.02,299.031,276.711,299.031z
				 M146.883,298.681c-0.313,0-0.567-0.248-0.567-0.557v-3.396c0-0.308,0.254-0.558,0.567-0.558c0.308,0,0.562,0.25,0.562,0.558
				v3.396C147.445,298.433,147.19,298.681,146.883,298.681z M276.711,292.245c-0.311,0-0.565-0.25-0.565-0.562v-3.391
				c0-0.311,0.255-0.562,0.565-0.562c0.308,0,0.558,0.252,0.558,0.562v3.391C277.269,291.995,277.02,292.245,276.711,292.245z
				 M146.883,291.899c-0.313,0-0.567-0.254-0.567-0.562v-3.391c0-0.313,0.254-0.562,0.567-0.562c0.308,0,0.562,0.249,0.562,0.562
				v3.391C147.445,291.646,147.19,291.899,146.883,291.899z M276.711,285.458c-0.311,0-0.565-0.25-0.565-0.561v-3.394
				c0-0.312,0.255-0.562,0.565-0.562c0.308,0,0.558,0.25,0.558,0.562v3.394C277.269,285.208,277.02,285.458,276.711,285.458z
				 M146.883,285.113c-0.313,0-0.567-0.249-0.567-0.561v-3.393c0-0.312,0.254-0.563,0.567-0.563c0.308,0,0.562,0.252,0.562,0.563
				v3.393C147.445,284.864,147.19,285.113,146.883,285.113z M276.711,278.674c-0.311,0-0.565-0.252-0.565-0.56v-3.395
				c0-0.31,0.255-0.564,0.565-0.564c0.308,0,0.558,0.255,0.558,0.564v3.395C277.269,278.421,277.02,278.674,276.711,278.674z
				 M146.883,278.329c-0.313,0-0.567-0.252-0.567-0.561v-3.394c0-0.31,0.254-0.562,0.567-0.562c0.308,0,0.562,0.252,0.562,0.562
				v3.394C147.445,278.077,147.19,278.329,146.883,278.329z M276.711,271.89c-0.311,0-0.565-0.252-0.565-0.562v-3.392
				c0-0.312,0.255-0.562,0.565-0.562c0.308,0,0.558,0.25,0.558,0.562v3.392C277.269,271.637,277.02,271.89,276.711,271.89z
				 M146.883,271.545c-0.313,0-0.567-0.251-0.567-0.562v-3.392c0-0.31,0.254-0.562,0.567-0.562c0.308,0,0.562,0.252,0.562,0.562
				v3.392C147.445,271.293,147.19,271.545,146.883,271.545z M276.711,265.106c-0.311,0-0.565-0.254-0.565-0.564v-3.391
				c0-0.312,0.255-0.564,0.565-0.564c0.308,0,0.558,0.252,0.558,0.564v3.391C277.269,264.852,277.02,265.106,276.711,265.106z
				 M146.883,264.759c-0.313,0-0.567-0.252-0.567-0.562v-3.391c0-0.312,0.254-0.561,0.567-0.561c0.308,0,0.562,0.249,0.562,0.561
				v3.391C147.445,264.506,147.19,264.759,146.883,264.759z M276.711,258.319c-0.311,0-0.565-0.251-0.565-0.562v-3.392
				c0-0.312,0.255-0.563,0.565-0.563c0.308,0,0.558,0.25,0.558,0.563v3.392C277.269,258.067,277.02,258.319,276.711,258.319z
				 M146.883,257.975c-0.313,0-0.567-0.254-0.567-0.563v-3.392c0-0.309,0.254-0.563,0.567-0.563c0.308,0,0.562,0.254,0.562,0.563
				v3.392C147.445,257.721,147.19,257.975,146.883,257.975z M276.711,251.535c-0.311,0-0.565-0.253-0.565-0.562v-3.393
				c0-0.312,0.255-0.564,0.565-0.564c0.308,0,0.558,0.252,0.558,0.564v3.393C277.269,251.282,277.02,251.535,276.711,251.535z
				 M146.883,251.189c-0.313,0-0.567-0.252-0.567-0.562v-3.392c0-0.31,0.254-0.562,0.567-0.562c0.308,0,0.562,0.252,0.562,0.562
				v3.392C147.445,250.937,147.19,251.189,146.883,251.189z M276.711,244.75c-0.311,0-0.565-0.252-0.565-0.564v-3.39
				c0-0.311,0.255-0.562,0.565-0.562c0.308,0,0.558,0.252,0.558,0.562v3.39C277.269,244.498,277.02,244.75,276.711,244.75z
				 M146.883,244.405c-0.313,0-0.567-0.252-0.567-0.563v-3.391c0-0.311,0.254-0.561,0.567-0.561c0.308,0,0.562,0.25,0.562,0.561
				v3.391C147.445,244.153,147.19,244.405,146.883,244.405z M276.711,237.964c-0.311,0-0.565-0.25-0.565-0.562v-1.533
				c0-0.563-0.09-1.118-0.271-1.648c-0.099-0.293,0.062-0.611,0.354-0.71c0.295-0.101,0.613,0.059,0.711,0.354
				c0.218,0.644,0.326,1.321,0.326,2.005v1.533C277.269,237.714,277.02,237.964,276.711,237.964z M146.883,237.619
				c-0.313,0-0.567-0.25-0.567-0.562v-1.188c0-0.815,0.157-1.61,0.461-2.361c0.119-0.289,0.443-0.426,0.732-0.312
				c0.289,0.118,0.424,0.445,0.31,0.734c-0.252,0.617-0.375,1.271-0.375,1.938v1.188
				C147.445,237.368,147.19,237.619,146.883,237.619z M274.47,231.887c-0.125,0-0.244-0.039-0.345-0.117
				c-0.82-0.628-1.796-0.993-2.826-1.059c-0.308-0.016-0.546-0.282-0.525-0.592c0.021-0.312,0.289-0.551,0.596-0.527
				c1.254,0.077,2.442,0.52,3.438,1.287c0.244,0.188,0.291,0.541,0.104,0.787C274.799,231.812,274.634,231.887,274.47,231.887z
				 M149.4,231.684c-0.178,0-0.353-0.088-0.461-0.246c-0.176-0.257-0.108-0.607,0.148-0.782c1.04-0.701,2.255-1.071,3.507-1.074
				c0,0,0,0,0.003,0c0.305,0,0.561,0.25,0.561,0.558c0.007,0.313-0.244,0.564-0.561,0.565c-1.032,0.001-2.029,0.306-2.876,0.883
				C149.624,231.651,149.51,231.684,149.4,231.684z M267.945,230.705h-3.396c-0.307,0-0.559-0.252-0.559-0.564
				c0-0.31,0.251-0.56,0.559-0.56h3.396c0.309,0,0.562,0.25,0.562,0.56C268.506,230.452,268.253,230.705,267.945,230.705z
				 M261.16,230.705h-3.392c-0.311,0-0.562-0.252-0.562-0.564c0-0.31,0.251-0.56,0.562-0.56h3.392c0.308,0,0.564,0.25,0.564,0.56
				C261.725,230.452,261.468,230.705,261.16,230.705z M254.373,230.705h-3.392c-0.312,0-0.562-0.252-0.562-0.564
				c0-0.31,0.249-0.56,0.562-0.56h3.392c0.31,0,0.562,0.25,0.562,0.56C254.935,230.452,254.683,230.705,254.373,230.705z
				 M247.591,230.705h-3.394c-0.311,0-0.562-0.252-0.562-0.564c0-0.31,0.251-0.56,0.562-0.56h3.394c0.308,0,0.56,0.25,0.56,0.56
				C248.151,230.452,247.899,230.705,247.591,230.705z M240.802,230.705h-3.39c-0.313,0-0.56-0.252-0.56-0.564
				c0-0.31,0.246-0.56,0.56-0.56h3.39c0.316,0,0.566,0.25,0.566,0.56C241.368,230.452,241.118,230.705,240.802,230.705z
				 M234.019,230.705h-3.392c-0.308,0-0.56-0.252-0.56-0.564c0-0.31,0.251-0.56,0.56-0.56h3.392c0.312,0,0.562,0.25,0.562,0.56
				C234.581,230.452,234.33,230.705,234.019,230.705z M227.237,230.705h-3.396c-0.313,0-0.562-0.252-0.562-0.564
				c0-0.31,0.249-0.56,0.562-0.56h3.396c0.308,0,0.558,0.25,0.558,0.56C227.794,230.452,227.544,230.705,227.237,230.705z
				 M220.447,230.705h-3.39c-0.312,0-0.565-0.252-0.565-0.564c0-0.31,0.253-0.56,0.565-0.56h3.39c0.313,0,0.565,0.25,0.565,0.56
				C221.013,230.452,220.76,230.705,220.447,230.705z M213.667,230.705h-3.396c-0.311,0-0.558-0.252-0.558-0.564
				c0-0.31,0.247-0.56,0.558-0.56h3.396c0.308,0,0.557,0.25,0.557,0.56C214.224,230.452,213.975,230.705,213.667,230.705z
				 M206.879,230.705h-3.392c-0.312,0-0.566-0.252-0.566-0.564c0-0.31,0.254-0.56,0.566-0.56h3.392c0.308,0,0.56,0.25,0.56,0.56
				C207.439,230.452,207.187,230.705,206.879,230.705z M200.096,230.705h-3.393c-0.316,0-0.566-0.252-0.566-0.564
				c0-0.31,0.25-0.56,0.566-0.56h3.393c0.312,0,0.562,0.25,0.562,0.56C200.658,230.452,200.407,230.705,200.096,230.705z
				 M193.309,230.705h-3.396c-0.309,0-0.56-0.252-0.56-0.564c0-0.31,0.251-0.56,0.56-0.56h3.396c0.309,0,0.561,0.25,0.561,0.56
				C193.869,230.452,193.617,230.705,193.309,230.705z M186.525,230.705h-3.391c-0.313,0-0.567-0.252-0.567-0.564
				c0-0.31,0.254-0.56,0.567-0.56h3.391c0.312,0,0.563,0.25,0.563,0.56C187.088,230.452,186.836,230.705,186.525,230.705z
				 M179.736,230.705h-3.394c-0.31,0-0.562-0.252-0.562-0.564c0-0.31,0.253-0.56,0.562-0.56h3.394c0.313,0,0.566,0.25,0.566,0.56
				C180.302,230.452,180.049,230.705,179.736,230.705z M172.952,230.705h-3.395c-0.308,0-0.56-0.252-0.56-0.564
				c0-0.31,0.252-0.56,0.56-0.56h3.395c0.311,0,0.564,0.25,0.564,0.56C173.517,230.452,173.263,230.705,172.952,230.705z
				 M166.166,230.705h-3.392c-0.311,0-0.56-0.252-0.56-0.564c0-0.31,0.25-0.56,0.56-0.56h3.392c0.315,0,0.564,0.25,0.564,0.56
				C166.73,230.452,166.481,230.705,166.166,230.705z M159.386,230.705h-3.396c-0.311,0-0.562-0.252-0.562-0.564
				c0-0.31,0.252-0.56,0.562-0.56h3.396c0.308,0,0.561,0.25,0.561,0.56C159.947,230.452,159.694,230.705,159.386,230.705z"/>
		</g>
	</g>
	<g>
		<path fill="#256388" d="M463.851,400.108h-3.027c-0.272,0-0.496-0.224-0.496-0.498s0.224-0.494,0.496-0.494h3.006
			c0.276,0,0.508,0.22,0.508,0.494C464.336,399.885,464.126,400.108,463.851,400.108z M457.822,400.108h-3.009
			c-0.275,0-0.496-0.224-0.496-0.498s0.221-0.494,0.496-0.494h3.009c0.269,0,0.494,0.22,0.494,0.494S458.09,400.108,457.822,400.108
			z M451.808,400.108h-3.006c-0.276,0-0.496-0.224-0.496-0.498s0.22-0.494,0.496-0.494h3.006c0.278,0,0.497,0.22,0.497,0.494
			S452.086,400.108,451.808,400.108z M445.793,400.108h-3.005c-0.271,0-0.491-0.224-0.491-0.498s0.221-0.494,0.491-0.494h3.005
			c0.278,0,0.501,0.22,0.501,0.494S446.072,400.108,445.793,400.108z M439.785,400.108h-3.003c-0.274,0-0.499-0.224-0.499-0.498
			s0.225-0.494,0.499-0.494h3.003c0.273,0,0.501,0.22,0.501,0.494S440.06,400.108,439.785,400.108z M433.771,400.108h-2.999
			c-0.276,0-0.503-0.224-0.503-0.498s0.227-0.494,0.503-0.494h2.999c0.28,0,0.502,0.22,0.502,0.494S434.052,400.108,433.771,400.108
			z M427.766,400.108h-3.006c-0.273,0-0.499-0.224-0.499-0.498s0.226-0.494,0.499-0.494h3.006c0.275,0,0.495,0.22,0.495,0.494
			S428.041,400.108,427.766,400.108z M421.754,400.108h-3.007c-0.272,0-0.492-0.224-0.492-0.498s0.22-0.494,0.492-0.494h3.007
			c0.274,0,0.501,0.22,0.501,0.494S422.029,400.108,421.754,400.108z M415.744,400.108h-3.005c-0.273,0-0.497-0.224-0.497-0.498
			s0.224-0.494,0.497-0.494h3.005c0.273,0,0.497,0.22,0.497,0.494S416.019,400.108,415.744,400.108z M409.733,400.108h-2.897
			c-0.046,0-0.091,0-0.133-0.006c-0.272-0.013-0.488-0.243-0.473-0.517s0.241-0.486,0.521-0.476
			c0.028,0.006,0.053,0.006,0.085,0.006h2.897c0.274,0,0.498,0.22,0.498,0.494S410.008,400.108,409.733,400.108z M465.798,398.204
			c-0.012,0-0.015,0-0.021,0c-0.268-0.01-0.489-0.238-0.48-0.515v-0.042v-2.944c0-0.276,0.227-0.499,0.502-0.499
			c0.272,0,0.496,0.222,0.496,0.499l-0.003,3.021C466.285,397.992,466.063,398.204,465.798,398.204z M404.864,398.125
			c-0.275,0-0.496-0.224-0.496-0.497v-3.007c0-0.274,0.221-0.499,0.496-0.499c0.271,0,0.496,0.225,0.496,0.499v3.007
			C405.36,397.901,405.135,398.125,404.864,398.125z M465.798,392.194c-0.275,0-0.502-0.226-0.502-0.496v-3.01
			c0-0.272,0.227-0.496,0.502-0.496c0.272,0,0.496,0.223,0.496,0.496v3.01C466.294,391.969,466.071,392.194,465.798,392.194z
			 M404.864,392.115c-0.275,0-0.496-0.226-0.496-0.499v-3.006c0-0.273,0.221-0.496,0.496-0.496c0.271,0,0.496,0.223,0.496,0.496
			v3.006C405.36,391.89,405.135,392.115,404.864,392.115z M465.798,386.181c-0.275,0-0.502-0.219-0.502-0.494v-3.004
			c0-0.273,0.227-0.498,0.502-0.498c0.272,0,0.496,0.224,0.496,0.498v3.004C466.294,385.962,466.071,386.181,465.798,386.181z
			 M404.864,386.104c-0.275,0-0.496-0.222-0.496-0.498v-2.935c0-0.028,0-0.059,0-0.092c0.012-0.272,0.233-0.492,0.516-0.476
			c0.277,0.008,0.49,0.242,0.479,0.515l-0.003,0.053v2.935C405.36,385.883,405.135,386.104,404.864,386.104z M463.92,381.208
			c-0.01,0-0.014,0-0.021-0.002l-0.069-0.002h-2.912c-0.273,0-0.498-0.225-0.498-0.497s0.225-0.496,0.498-0.496h2.912
			c0.036,0,0.072,0,0.113,0c0.271,0.015,0.486,0.244,0.477,0.521C464.405,380.998,464.188,381.208,463.92,381.208z M457.909,381.203
			h-3.006c-0.272,0-0.496-0.224-0.496-0.497c0-0.271,0.224-0.496,0.496-0.496h3.006c0.274,0,0.496,0.223,0.496,0.496
			S458.185,381.203,457.909,381.203z M451.9,381.203h-3.006c-0.278,0-0.496-0.224-0.496-0.497c0-0.271,0.218-0.496,0.496-0.496
			h3.006c0.276,0,0.498,0.223,0.498,0.496S452.177,381.203,451.9,381.203z M445.889,381.203h-3.003
			c-0.273,0-0.499-0.224-0.499-0.497c0-0.271,0.226-0.496,0.499-0.496h3.003c0.274,0,0.496,0.223,0.496,0.496
			S446.163,381.203,445.889,381.203z M439.88,381.203h-3.008c-0.275,0-0.496-0.224-0.496-0.497c0-0.271,0.221-0.496,0.496-0.496
			h3.008c0.271,0,0.495,0.223,0.495,0.496S440.152,381.203,439.88,381.203z M433.866,381.203h-3.006
			c-0.271,0-0.496-0.224-0.496-0.497c0-0.271,0.225-0.496,0.496-0.496h3.006c0.273,0,0.496,0.223,0.496,0.496
			S434.141,381.203,433.866,381.203z M427.859,381.203h-3.007c-0.278,0-0.496-0.224-0.496-0.497c0-0.271,0.218-0.496,0.496-0.496
			h3.007c0.274,0,0.496,0.223,0.496,0.496S428.134,381.203,427.859,381.203z M421.846,381.203h-3.008
			c-0.271,0-0.494-0.224-0.494-0.497c0-0.271,0.224-0.496,0.494-0.496h3.008c0.275,0,0.494,0.223,0.494,0.496
			S422.121,381.203,421.846,381.203z M415.837,381.203h-3.007c-0.274,0-0.495-0.224-0.495-0.497c0-0.271,0.221-0.496,0.495-0.496
			h3.007c0.272,0,0.499,0.223,0.499,0.496S416.11,381.203,415.837,381.203z M409.823,381.203h-2.987c-0.281,0-0.51-0.224-0.51-0.497
			c0-0.271,0.22-0.496,0.493-0.496h3.004c0.275,0,0.498,0.223,0.498,0.496S410.099,381.203,409.823,381.203z"/>
	</g>
	<g>
		<path fill="#256388" d="M249.188,220.758h-3.345c-0.308,0-0.562-0.252-0.562-0.561c0-0.311,0.255-0.562,0.562-0.562h3.327
			c0.308,0,0.57,0.252,0.57,0.562C249.741,220.506,249.496,220.758,249.188,220.758z M242.516,220.758h-3.321
			c-0.311,0-0.564-0.252-0.564-0.561c0-0.311,0.254-0.562,0.564-0.562h3.321c0.312,0,0.566,0.252,0.566,0.562
			C243.082,220.506,242.827,220.758,242.516,220.758z M235.867,220.758h-3.326c-0.313,0-0.563-0.252-0.563-0.561
			c0-0.311,0.25-0.562,0.563-0.562h3.326c0.311,0,0.56,0.252,0.56,0.562C236.427,220.506,236.178,220.758,235.867,220.758z
			 M229.216,220.758h-3.324c-0.315,0-0.564-0.252-0.564-0.561c0-0.311,0.249-0.562,0.564-0.562h3.324
			c0.31,0,0.562,0.252,0.562,0.562C229.779,220.506,229.526,220.758,229.216,220.758z M222.562,220.758h-3.324
			c-0.307,0-0.56-0.252-0.56-0.561c0-0.311,0.252-0.562,0.56-0.562h3.324c0.314,0,0.563,0.252,0.563,0.562
			C223.125,220.506,222.876,220.758,222.562,220.758z M215.911,220.758h-3.327c-0.309,0-0.561-0.252-0.561-0.561
			c0-0.311,0.251-0.562,0.561-0.562h3.327c0.315,0,0.562,0.252,0.562,0.562C216.473,220.506,216.227,220.758,215.911,220.758z
			 M209.263,220.758h-3.327c-0.31,0-0.56-0.252-0.56-0.561c0-0.311,0.25-0.562,0.56-0.562h3.327c0.31,0,0.562,0.252,0.562,0.562
			C209.825,220.506,209.573,220.758,209.263,220.758z M202.669,220.401c-0.087,0-0.186-0.024-0.273-0.075
			c-1.045-0.588-1.685-1.697-1.685-2.892v-0.408c0-0.31,0.249-0.561,0.56-0.561c0.308,0,0.561,0.251,0.561,0.561v0.408
			c0,0.791,0.428,1.525,1.12,1.916c0.268,0.152,0.363,0.496,0.209,0.767C203.059,220.298,202.869,220.401,202.669,220.401z
			 M251.757,218.969c-0.066,0-0.135-0.011-0.202-0.037c-0.289-0.107-0.438-0.431-0.324-0.723c0.094-0.246,0.139-0.507,0.139-0.775
			v-2.331c0-0.312,0.249-0.56,0.562-0.56c0.312,0,0.563,0.248,0.563,0.56v2.331c0,0.403-0.072,0.796-0.216,1.172
			C252.197,218.83,251.98,218.969,251.757,218.969z M201.271,214.262c-0.311,0-0.56-0.252-0.56-0.562v-3.324
			c0-0.31,0.249-0.562,0.56-0.562c0.308,0,0.561,0.253,0.561,0.562v3.324C201.831,214.01,201.579,214.262,201.271,214.262z
			 M251.932,212.338c-0.312,0-0.562-0.249-0.562-0.562v-3.325c0-0.309,0.249-0.561,0.562-0.561c0.312,0,0.563,0.252,0.563,0.561
			v3.325C252.495,212.089,252.243,212.338,251.932,212.338z M201.271,207.612c-0.311,0-0.56-0.253-0.56-0.563v-3.324
			c0-0.311,0.249-0.561,0.56-0.561c0.308,0,0.561,0.25,0.561,0.561v3.324C201.831,207.358,201.579,207.612,201.271,207.612z
			 M251.932,205.687c-0.312,0-0.562-0.251-0.562-0.562v-3.326c0-0.309,0.249-0.559,0.562-0.559c0.312,0,0.563,0.25,0.563,0.559
			v3.326C252.495,205.436,252.243,205.687,251.932,205.687z M201.271,200.959c-0.311,0-0.56-0.25-0.56-0.56v-3.327
			c0-0.31,0.249-0.562,0.56-0.562c0.308,0,0.561,0.252,0.561,0.562v3.327C201.831,200.709,201.579,200.959,201.271,200.959z
			 M251.932,199.037c-0.312,0-0.562-0.252-0.562-0.561v-3.327c0-0.309,0.249-0.562,0.562-0.562c0.312,0,0.563,0.253,0.563,0.562
			v3.327C252.495,198.785,252.243,199.037,251.932,199.037z M201.271,194.308c-0.311,0-0.56-0.252-0.56-0.562v-3.326
			c0-0.311,0.249-0.562,0.56-0.562c0.308,0,0.561,0.25,0.561,0.562v3.326C201.831,194.056,201.579,194.308,201.271,194.308z
			 M251.932,192.384c-0.312,0-0.562-0.252-0.562-0.561v-3.326c0-0.312,0.249-0.563,0.562-0.563c0.312,0,0.563,0.251,0.563,0.563
			v3.326C252.495,192.132,252.243,192.384,251.932,192.384z M201.271,187.657c-0.311,0-0.56-0.25-0.56-0.561v-3.326
			c0-0.31,0.249-0.56,0.56-0.56c0.308,0,0.561,0.25,0.561,0.56v3.326C201.831,187.407,201.579,187.657,201.271,187.657z
			 M251.932,185.733c-0.312,0-0.562-0.25-0.562-0.56v-3.327c0-0.31,0.249-0.561,0.562-0.561c0.312,0,0.563,0.251,0.563,0.561v3.327
			C252.495,185.484,252.243,185.733,251.932,185.733z M201.271,181.007c-0.311,0-0.56-0.253-0.56-0.563v-2.32
			c0-0.405,0.068-0.804,0.215-1.182c0.111-0.288,0.435-0.435,0.722-0.326c0.292,0.112,0.437,0.438,0.332,0.726
			c-0.101,0.25-0.147,0.514-0.147,0.783v2.32C201.831,180.754,201.579,181.007,201.271,181.007z M251.932,179.083
			c-0.312,0-0.562-0.252-0.562-0.564v-0.396c0-0.794-0.431-1.529-1.122-1.918c-0.274-0.152-0.367-0.497-0.219-0.766
			c0.155-0.271,0.497-0.368,0.768-0.214c1.049,0.589,1.698,1.7,1.698,2.899v0.396C252.495,178.832,252.243,179.083,251.932,179.083z
			 M247.255,175.922h-3.324c-0.311,0-0.562-0.251-0.562-0.56c0-0.31,0.252-0.562,0.562-0.562h3.324c0.31,0,0.562,0.253,0.562,0.562
			S247.565,175.922,247.255,175.922z M240.604,175.922h-3.324c-0.311,0-0.562-0.251-0.562-0.56c0-0.31,0.251-0.562,0.562-0.562
			h3.324c0.313,0,0.562,0.253,0.562,0.562S240.917,175.922,240.604,175.922z M233.955,175.922h-3.328
			c-0.308,0-0.558-0.251-0.558-0.56c0-0.31,0.25-0.562,0.558-0.562h3.328c0.308,0,0.557,0.253,0.557,0.562
			S234.263,175.922,233.955,175.922z M227.303,175.922h-3.326c-0.309,0-0.561-0.251-0.561-0.56c0-0.31,0.252-0.562,0.561-0.562
			h3.326c0.309,0,0.561,0.253,0.561,0.562C227.863,175.671,227.611,175.922,227.303,175.922z M220.653,175.922h-3.324
			c-0.312,0-0.565-0.251-0.565-0.56c0-0.31,0.255-0.562,0.565-0.562h3.324c0.311,0,0.562,0.253,0.562,0.562
			S220.962,175.922,220.653,175.922z M214,175.922h-3.324c-0.315,0-0.567-0.251-0.567-0.56c0-0.31,0.252-0.562,0.567-0.562H214
			c0.311,0,0.56,0.253,0.56,0.562C214.561,175.671,214.312,175.922,214,175.922z M207.35,175.922h-3.312
			c-0.312,0-0.571-0.251-0.571-0.56c0-0.31,0.244-0.562,0.56-0.562h3.325c0.312,0,0.563,0.253,0.563,0.562
			C207.913,175.671,207.66,175.922,207.35,175.922z"/>
	</g>
	<g>
		<path fill="#256388" d="M463.851,427.844h-3.027c-0.272,0-0.496-0.222-0.496-0.499c0-0.275,0.224-0.498,0.496-0.498h3.006
			c0.276,0,0.508,0.223,0.508,0.498C464.336,427.622,464.126,427.844,463.851,427.844z M457.822,427.844h-3.009
			c-0.275,0-0.496-0.222-0.496-0.499c0-0.275,0.221-0.498,0.496-0.498h3.009c0.269,0,0.494,0.223,0.494,0.498
			C458.316,427.622,458.09,427.844,457.822,427.844z M451.808,427.844h-3.006c-0.276,0-0.496-0.222-0.496-0.499
			c0-0.275,0.22-0.498,0.496-0.498h3.006c0.278,0,0.497,0.223,0.497,0.498C452.305,427.622,452.086,427.844,451.808,427.844z
			 M445.793,427.844h-3.005c-0.271,0-0.491-0.222-0.491-0.499c0-0.275,0.221-0.498,0.491-0.498h3.005
			c0.278,0,0.501,0.223,0.501,0.498C446.294,427.622,446.072,427.844,445.793,427.844z M439.785,427.844h-3.003
			c-0.274,0-0.499-0.222-0.499-0.499c0-0.275,0.225-0.498,0.499-0.498h3.003c0.273,0,0.501,0.223,0.501,0.498
			C440.286,427.622,440.06,427.844,439.785,427.844z M433.771,427.844h-2.999c-0.276,0-0.503-0.222-0.503-0.499
			c0-0.275,0.227-0.498,0.503-0.498h2.999c0.28,0,0.502,0.223,0.502,0.498C434.273,427.622,434.052,427.844,433.771,427.844z
			 M427.766,427.844h-3.006c-0.273,0-0.499-0.222-0.499-0.499c0-0.275,0.226-0.498,0.499-0.498h3.006
			c0.275,0,0.495,0.223,0.495,0.498C428.261,427.622,428.041,427.844,427.766,427.844z M421.754,427.844h-3.007
			c-0.272,0-0.492-0.222-0.492-0.499c0-0.275,0.22-0.498,0.492-0.498h3.007c0.274,0,0.501,0.223,0.501,0.498
			C422.255,427.622,422.029,427.844,421.754,427.844z M415.744,427.844h-3.005c-0.273,0-0.497-0.222-0.497-0.499
			c0-0.275,0.224-0.498,0.497-0.498h3.005c0.273,0,0.497,0.223,0.497,0.498C416.241,427.622,416.019,427.844,415.744,427.844z
			 M409.733,427.844h-2.897c-0.046,0-0.091,0-0.133,0c-0.272-0.016-0.488-0.249-0.473-0.523c0.016-0.273,0.241-0.491,0.521-0.474
			c0.028,0,0.053,0,0.085,0h2.897c0.274,0,0.498,0.223,0.498,0.498C410.231,427.622,410.008,427.844,409.733,427.844z
			 M465.798,425.938c-0.012,0-0.015,0-0.021,0c-0.268-0.01-0.489-0.232-0.48-0.514v-0.046v-2.942c0-0.272,0.227-0.495,0.502-0.495
			c0.272,0,0.496,0.222,0.496,0.495l-0.003,3.025C466.285,425.731,466.063,425.938,465.798,425.938z M404.864,425.859
			c-0.275,0-0.496-0.219-0.496-0.498v-3.004c0-0.277,0.221-0.498,0.496-0.498c0.271,0,0.496,0.221,0.496,0.498v3.004
			C405.36,425.642,405.135,425.859,404.864,425.859z M465.798,419.932c-0.275,0-0.502-0.225-0.502-0.499v-3.003
			c0-0.274,0.227-0.499,0.502-0.499c0.272,0,0.496,0.224,0.496,0.499v3.003C466.294,419.708,466.071,419.932,465.798,419.932z
			 M404.864,419.847c-0.275,0-0.496-0.222-0.496-0.499v-3.003c0-0.275,0.221-0.499,0.496-0.499c0.271,0,0.496,0.224,0.496,0.499
			v3.003C405.36,419.625,405.135,419.847,404.864,419.847z M465.798,413.921c-0.275,0-0.502-0.224-0.502-0.499v-3.01
			c0-0.273,0.227-0.492,0.502-0.492c0.272,0,0.496,0.219,0.496,0.492v3.01C466.294,413.697,466.071,413.921,465.798,413.921z
			 M404.864,413.836c-0.275,0-0.496-0.224-0.496-0.495v-2.929c0-0.032,0-0.065,0-0.094c0.012-0.277,0.233-0.491,0.516-0.479
			c0.277,0.013,0.49,0.245,0.479,0.519l-0.003,0.055v2.929C405.36,413.612,405.135,413.836,404.864,413.836z M463.92,408.94
			c-0.01,0-0.014,0-0.021,0h-0.069h-2.912c-0.273,0-0.498-0.226-0.498-0.499s0.225-0.495,0.498-0.495h2.912
			c0.036,0,0.072,0.001,0.113,0.003c0.271,0.012,0.486,0.244,0.477,0.519C464.405,408.736,464.188,408.94,463.92,408.94z
			 M457.909,408.94h-3.006c-0.272,0-0.496-0.226-0.496-0.499s0.224-0.495,0.496-0.495h3.006c0.274,0,0.496,0.222,0.496,0.495
			C458.406,408.716,458.185,408.94,457.909,408.94z M451.9,408.94h-3.006c-0.278,0-0.496-0.226-0.496-0.499s0.218-0.495,0.496-0.495
			h3.006c0.276,0,0.498,0.222,0.498,0.495C452.398,408.716,452.177,408.94,451.9,408.94z M445.889,408.94h-3.003
			c-0.273,0-0.499-0.226-0.499-0.499s0.226-0.495,0.499-0.495h3.003c0.274,0,0.496,0.222,0.496,0.495
			C446.385,408.716,446.163,408.94,445.889,408.94z M439.88,408.94h-3.008c-0.275,0-0.496-0.226-0.496-0.499
			s0.221-0.495,0.496-0.495h3.008c0.271,0,0.495,0.222,0.495,0.495C440.375,408.716,440.152,408.94,439.88,408.94z M433.866,408.94
			h-3.006c-0.271,0-0.496-0.226-0.496-0.499s0.225-0.495,0.496-0.495h3.006c0.273,0,0.496,0.222,0.496,0.495
			C434.363,408.716,434.141,408.94,433.866,408.94z M427.859,408.94h-3.007c-0.278,0-0.496-0.226-0.496-0.499
			s0.218-0.495,0.496-0.495h3.007c0.274,0,0.496,0.222,0.496,0.495C428.355,408.716,428.134,408.94,427.859,408.94z M421.846,408.94
			h-3.008c-0.271,0-0.494-0.226-0.494-0.499s0.224-0.495,0.494-0.495h3.008c0.275,0,0.494,0.222,0.494,0.495
			C422.34,408.716,422.121,408.94,421.846,408.94z M415.837,408.94h-3.007c-0.274,0-0.495-0.226-0.495-0.499
			s0.221-0.495,0.495-0.495h3.007c0.272,0,0.499,0.222,0.499,0.495C416.336,408.716,416.11,408.94,415.837,408.94z M409.823,408.94
			h-2.987c-0.281,0-0.51-0.226-0.51-0.499s0.22-0.495,0.493-0.495h3.004c0.275,0,0.498,0.222,0.498,0.495
			C410.321,408.716,410.099,408.94,409.823,408.94z"/>
	</g>
	<g>
		<path fill="#256388" d="M226.685,406.948h-3.003c-0.279,0-0.497-0.224-0.497-0.499c0-0.271,0.218-0.493,0.497-0.493h2.979
			c0.275,0,0.506,0.223,0.506,0.493C227.167,406.725,226.956,406.948,226.685,406.948z M220.703,406.948h-2.98
			c-0.274,0-0.499-0.224-0.499-0.499c0-0.271,0.223-0.493,0.499-0.493h2.98c0.272,0,0.496,0.223,0.496,0.493
			C221.198,406.725,220.976,406.948,220.703,406.948z M214.744,406.948h-2.978c-0.278,0-0.501-0.224-0.501-0.499
			c0-0.271,0.223-0.493,0.501-0.493h2.978c0.274,0,0.497,0.223,0.497,0.493C215.24,406.725,215.019,406.948,214.744,406.948z
			 M208.782,406.948h-2.978c-0.272,0-0.496-0.224-0.496-0.499c0-0.271,0.224-0.493,0.496-0.493h2.978
			c0.277,0,0.501,0.223,0.501,0.493C209.284,406.725,209.061,406.948,208.782,406.948z M202.829,406.948h-2.985
			c-0.273,0-0.494-0.224-0.494-0.499c0-0.271,0.22-0.493,0.494-0.493h2.985c0.273,0,0.493,0.223,0.493,0.493
			C203.322,406.725,203.103,406.948,202.829,406.948z M196.867,406.948h-2.98c-0.273,0-0.495-0.224-0.495-0.499
			c0-0.271,0.222-0.493,0.495-0.493h2.98c0.275,0,0.499,0.223,0.499,0.493C197.366,406.725,197.144,406.948,196.867,406.948z
			 M190.908,406.948h-2.982c-0.268,0-0.49-0.224-0.49-0.499c0-0.271,0.224-0.493,0.49-0.493h2.982c0.274,0,0.501,0.223,0.501,0.493
			C191.41,406.725,191.184,406.948,190.908,406.948z M184.95,406.948h-2.979c-0.276,0-0.501-0.224-0.501-0.499
			c0-0.271,0.226-0.493,0.501-0.493h2.979c0.271,0,0.494,0.223,0.494,0.493C185.445,406.725,185.222,406.948,184.95,406.948z
			 M178.993,406.948h-2.982c-0.279,0-0.496-0.224-0.496-0.499c0-0.271,0.217-0.493,0.496-0.493h2.982
			c0.272,0,0.493,0.223,0.493,0.493C179.487,406.725,179.267,406.948,178.993,406.948z M173.032,406.948h-2.979
			c-0.273,0-0.499-0.224-0.499-0.499c0-0.271,0.226-0.493,0.499-0.493h2.979c0.272,0,0.498,0.223,0.498,0.493
			C173.531,406.725,173.305,406.948,173.032,406.948z M167.073,406.948h-2.974c-0.282,0-0.502-0.224-0.502-0.499
			c0-0.271,0.22-0.493,0.502-0.493h2.974c0.278,0,0.497,0.223,0.497,0.493C167.569,406.725,167.351,406.948,167.073,406.948z
			 M161.114,406.948h-2.977c-0.278,0-0.499-0.224-0.499-0.499c0-0.271,0.22-0.493,0.499-0.493h2.977
			c0.276,0,0.502,0.223,0.502,0.493C161.615,406.725,161.39,406.948,161.114,406.948z M155.158,406.948h-2.982
			c-0.273,0-0.496-0.224-0.496-0.499c0-0.271,0.223-0.493,0.496-0.493h2.982c0.273,0,0.495,0.223,0.495,0.493
			C155.654,406.725,155.432,406.948,155.158,406.948z M149.197,406.948h-2.979c-0.272,0-0.493-0.224-0.493-0.499
			c0-0.271,0.221-0.493,0.493-0.493h2.979c0.278,0,0.498,0.223,0.498,0.493C149.695,406.725,149.475,406.948,149.197,406.948z
			 M143.241,406.948h-2.982c-0.271,0-0.494-0.224-0.494-0.499c0-0.271,0.223-0.493,0.494-0.493h2.982
			c0.271,0,0.497,0.223,0.497,0.493C143.739,406.725,143.513,406.948,143.241,406.948z M137.281,406.948h-2.38
			c-0.217,0-0.442-0.011-0.654-0.037c-0.274-0.032-0.471-0.28-0.441-0.551c0.037-0.276,0.284-0.472,0.552-0.438
			c0.181,0.02,0.361,0.035,0.544,0.035h2.381c0.271,0,0.495,0.223,0.495,0.493C137.777,406.725,137.552,406.948,137.281,406.948z
			 M229.487,406.087c-0.158,0-0.315-0.076-0.414-0.216c-0.147-0.23-0.091-0.541,0.139-0.693c0.753-0.506,1.337-1.215,1.682-2.048
			c0.104-0.252,0.396-0.373,0.649-0.271c0.252,0.108,0.372,0.396,0.266,0.652c-0.422,1.018-1.125,1.881-2.043,2.49
			C229.681,406.062,229.584,406.087,229.487,406.087z M131.612,405.739c-0.114,0-0.229-0.038-0.32-0.117
			c-0.84-0.716-1.446-1.652-1.749-2.711c-0.074-0.267,0.077-0.541,0.342-0.615c0.263-0.074,0.536,0.079,0.616,0.342
			c0.25,0.867,0.743,1.64,1.433,2.226c0.212,0.182,0.236,0.492,0.056,0.7C131.896,405.68,131.755,405.739,131.612,405.739z
			 M231.739,400.892c-0.275,0-0.498-0.221-0.498-0.495v-2.98c0-0.276,0.223-0.499,0.498-0.499c0.273,0,0.494,0.222,0.494,0.499v2.98
			C232.233,400.67,232.013,400.892,231.739,400.892z M129.826,400.311c-0.276,0-0.497-0.224-0.497-0.498v-2.975
			c0-0.282,0.22-0.501,0.497-0.501c0.272,0,0.495,0.221,0.495,0.501v2.975C130.322,400.087,130.099,400.311,129.826,400.311z
			 M231.739,394.937c-0.275,0-0.498-0.225-0.498-0.502v-2.977c0-0.273,0.223-0.497,0.498-0.497c0.273,0,0.494,0.224,0.494,0.497
			v2.977C232.233,394.712,232.013,394.937,231.739,394.937z M129.826,394.356c-0.276,0-0.497-0.226-0.497-0.498v-2.985
			c0-0.272,0.22-0.494,0.497-0.494c0.272,0,0.495,0.222,0.495,0.494v2.985C130.322,394.131,130.099,394.356,129.826,394.356z
			 M231.739,388.976c-0.275,0-0.498-0.223-0.498-0.498v-2.981c0-0.272,0.223-0.494,0.498-0.494c0.273,0,0.494,0.222,0.494,0.494
			v2.981C232.233,388.753,232.013,388.976,231.739,388.976z M129.826,388.392c-0.276,0-0.497-0.222-0.497-0.494v-2.981
			c0-0.274,0.22-0.498,0.497-0.498c0.272,0,0.495,0.224,0.495,0.498v2.981C130.322,388.17,130.099,388.392,129.826,388.392z
			 M231.739,383.015c-0.275,0-0.498-0.22-0.498-0.496v-2.981c0-0.274,0.223-0.493,0.498-0.493c0.273,0,0.494,0.217,0.494,0.493
			v2.981C232.233,382.795,232.013,383.015,231.739,383.015z M129.826,382.435c-0.276,0-0.497-0.224-0.497-0.5v-2.977
			c0-0.275,0.22-0.499,0.497-0.499c0.272,0,0.495,0.222,0.495,0.499v2.977C130.322,382.21,130.099,382.435,129.826,382.435z
			 M231.739,377.056c-0.275,0-0.498-0.22-0.498-0.498v-2.98c0-0.273,0.223-0.496,0.498-0.496c0.273,0,0.494,0.223,0.494,0.496v2.98
			C232.233,376.835,232.013,377.056,231.739,377.056z M129.826,376.476c-0.276,0-0.497-0.224-0.497-0.496v-2.98
			c0-0.275,0.22-0.499,0.497-0.499c0.272,0,0.495,0.224,0.495,0.499v2.98C130.322,376.252,130.099,376.476,129.826,376.476z
			 M231.739,371.101c-0.275,0-0.498-0.229-0.498-0.502v-2.977c0-0.277,0.223-0.497,0.498-0.497c0.273,0,0.494,0.22,0.494,0.497
			v2.977C232.233,370.871,232.013,371.101,231.739,371.101z M129.826,370.517c-0.276,0-0.497-0.225-0.497-0.496v-2.982
			c0-0.273,0.22-0.496,0.497-0.496c0.272,0,0.495,0.223,0.495,0.496v2.982C130.322,370.292,130.099,370.517,129.826,370.517z
			 M231.739,365.135c-0.275,0-0.498-0.217-0.498-0.493v-2.981c0-0.272,0.223-0.494,0.498-0.494c0.273,0,0.494,0.222,0.494,0.494
			v2.981C232.233,364.918,232.013,365.135,231.739,365.135z M129.826,364.558c-0.276,0-0.497-0.221-0.497-0.496v-2.98
			c0-0.275,0.22-0.495,0.497-0.495c0.272,0,0.495,0.22,0.495,0.495v2.98C130.322,364.337,130.099,364.558,129.826,364.558z
			 M231.739,359.179c-0.275,0-0.498-0.22-0.498-0.496v-2.979c0-0.273,0.223-0.497,0.498-0.497c0.273,0,0.494,0.224,0.494,0.497
			v2.979C232.233,358.958,232.013,359.179,231.739,359.179z M129.826,358.599c-0.276,0-0.497-0.223-0.497-0.496v-2.979
			c0-0.276,0.22-0.498,0.497-0.498c0.272,0,0.495,0.222,0.495,0.498v2.979C130.322,358.375,130.099,358.599,129.826,358.599z
			 M231.739,353.224c-0.275,0-0.498-0.224-0.498-0.5v-2.981c0-0.273,0.223-0.493,0.498-0.493c0.273,0,0.494,0.22,0.494,0.493v2.981
			C232.233,353,232.013,353.224,231.739,353.224z M129.826,352.64c-0.276,0-0.497-0.223-0.497-0.496v-2.979
			c0-0.276,0.22-0.498,0.497-0.498c0.272,0,0.495,0.222,0.495,0.498v2.979C130.322,352.417,130.099,352.64,129.826,352.64z
			 M231.739,347.265c-0.275,0-0.498-0.229-0.498-0.5v-2.979c0-0.276,0.223-0.496,0.498-0.496c0.273,0,0.494,0.22,0.494,0.496v2.979
			C232.233,347.036,232.013,347.265,231.739,347.265z M129.826,346.681c-0.276,0-0.497-0.221-0.497-0.496v-2.979
			c0-0.276,0.22-0.5,0.497-0.5c0.272,0,0.495,0.224,0.495,0.5v2.979C130.322,346.46,130.099,346.681,129.826,346.681z
			 M231.739,341.304c-0.275,0-0.498-0.221-0.498-0.498v-2.979c0-0.273,0.223-0.496,0.498-0.496c0.273,0,0.494,0.223,0.494,0.496
			v2.979C232.233,341.083,232.013,341.304,231.739,341.304z M129.826,340.722c-0.276,0-0.497-0.224-0.497-0.496v-2.979
			c0-0.276,0.22-0.496,0.497-0.496c0.272,0,0.495,0.22,0.495,0.496v2.979C130.322,340.499,130.099,340.722,129.826,340.722z
			 M231.541,335.362c-0.222,0-0.417-0.141-0.48-0.358c-0.25-0.866-0.749-1.633-1.44-2.223c-0.207-0.179-0.233-0.49-0.056-0.698
			c0.176-0.211,0.49-0.238,0.7-0.061c0.844,0.715,1.451,1.649,1.753,2.705c0.077,0.265-0.075,0.543-0.342,0.616
			C231.631,335.358,231.588,335.362,231.541,335.362z M130.214,334.819c-0.062,0-0.125-0.014-0.189-0.041
			c-0.253-0.106-0.371-0.398-0.27-0.652c0.427-1.014,1.135-1.873,2.053-2.489c0.229-0.149,0.533-0.09,0.69,0.14
			c0.15,0.228,0.091,0.537-0.139,0.688c-0.753,0.505-1.337,1.213-1.687,2.046C130.595,334.702,130.41,334.819,130.214,334.819z
			 M227.253,331.729c-0.02,0-0.042-0.002-0.059-0.002c-0.178-0.021-0.357-0.031-0.533-0.031h-2.392
			c-0.272,0-0.499-0.223-0.499-0.497s0.227-0.499,0.499-0.499h2.392c0.218,0,0.433,0.013,0.645,0.04
			c0.271,0.028,0.472,0.276,0.438,0.546C227.717,331.542,227.5,331.729,227.253,331.729z M221.292,331.696h-2.979
			c-0.271,0-0.493-0.223-0.493-0.497s0.224-0.499,0.493-0.499h2.979c0.275,0,0.501,0.225,0.501,0.499
			S221.567,331.696,221.292,331.696z M215.338,331.696h-2.985c-0.271,0-0.498-0.223-0.498-0.497s0.227-0.499,0.498-0.499h2.985
			c0.271,0,0.491,0.225,0.491,0.499S215.608,331.696,215.338,331.696z M209.376,331.696h-2.979c-0.276,0-0.5-0.223-0.5-0.497
			s0.224-0.499,0.5-0.499h2.979c0.272,0,0.496,0.225,0.496,0.499S209.649,331.696,209.376,331.696z M203.412,331.696h-2.978
			c-0.272,0-0.493-0.223-0.493-0.497s0.221-0.499,0.493-0.499h2.978c0.281,0,0.502,0.225,0.502,0.499
			S203.694,331.696,203.412,331.696z M197.456,331.696h-2.975c-0.277,0-0.502-0.223-0.502-0.497s0.225-0.499,0.502-0.499h2.975
			c0.275,0,0.498,0.225,0.498,0.499S197.732,331.696,197.456,331.696z M191.497,331.696h-2.978c-0.277,0-0.497-0.223-0.497-0.497
			s0.22-0.499,0.497-0.499h2.978c0.278,0,0.501,0.225,0.501,0.499C191.999,331.474,191.776,331.696,191.497,331.696z
			 M185.541,331.696h-2.979c-0.272,0-0.5-0.223-0.5-0.497s0.227-0.499,0.5-0.499h2.979c0.275,0,0.499,0.225,0.499,0.499
			S185.817,331.696,185.541,331.696z M179.582,331.696h-2.979c-0.274,0-0.496-0.223-0.496-0.497s0.221-0.499,0.496-0.499h2.979
			c0.278,0,0.496,0.225,0.496,0.499S179.861,331.696,179.582,331.696z M173.624,331.696h-2.979c-0.275,0-0.496-0.223-0.496-0.497
			s0.221-0.499,0.496-0.499h2.979c0.272,0,0.501,0.225,0.501,0.499S173.897,331.696,173.624,331.696z M167.667,331.696h-2.985
			c-0.271,0-0.499-0.223-0.499-0.497s0.229-0.499,0.499-0.499h2.985c0.268,0,0.493,0.225,0.493,0.499
			C168.161,331.474,167.935,331.696,167.667,331.696z M161.706,331.696h-2.979c-0.278,0-0.499-0.223-0.499-0.497
			s0.221-0.499,0.499-0.499h2.979c0.274,0,0.495,0.225,0.495,0.499S161.981,331.696,161.706,331.696z M155.745,331.696h-2.979
			c-0.274,0-0.495-0.223-0.495-0.497s0.221-0.499,0.495-0.499h2.979c0.277,0,0.499,0.225,0.499,0.499
			C156.243,331.474,156.023,331.696,155.745,331.696z M149.788,331.696h-2.978c-0.275,0-0.501-0.223-0.501-0.497
			s0.227-0.499,0.501-0.499h2.978c0.273,0,0.499,0.225,0.499,0.499S150.062,331.696,149.788,331.696z M143.826,331.696h-2.978
			c-0.276,0-0.494-0.223-0.494-0.497s0.218-0.499,0.494-0.499h2.978c0.28,0,0.499,0.225,0.499,0.499
			S144.107,331.696,143.826,331.696z M137.873,331.696h-2.973c-0.274,0-0.504-0.223-0.504-0.497s0.221-0.499,0.496-0.499h2.979
			c0.272,0,0.496,0.225,0.496,0.499C138.369,331.474,138.146,331.696,137.873,331.696z"/>
	</g>
	<g>
		<path opacity="0.4" fill="#FFFFFF" enable-background="new    " d="M255.644,315.628H135.222c-2.597,0-4.704-2.105-4.704-4.707
			V245.08c0-2.6,2.107-4.707,4.704-4.707h120.422c2.594,0,4.703,2.107,4.703,4.707v65.841
			C260.347,313.522,258.238,315.628,255.644,315.628z"/>
		<path fill="#FFFFFF" d="M180.782,263.075v29.853c0,1.869,2.073,2.986,3.634,1.96l22.689-14.928c1.408-0.928,1.408-2.992,0-3.918
			l-22.689-14.926C182.856,260.089,180.782,261.208,180.782,263.075z"/>
		<g>
			<path fill="#5CC1D4" d="M137.271,308.839c0-1.287,1.037-2.332,2.324-2.332s2.332,1.045,2.332,2.332s-1.045,2.33-2.332,2.33
				S137.271,310.126,137.271,308.839z"/>
			<path fill="#5CC1D4" d="M245.612,309.465H140.226c-0.347,0-0.631-0.278-0.631-0.626l0,0c0-0.348,0.284-0.628,0.631-0.628h105.386
				c0.343,0,0.626,0.281,0.626,0.628l0,0C246.239,309.187,245.954,309.465,245.612,309.465z"/>
		</g>
	</g>
	<g>
		<path opacity="0.4" fill="#FFFFFF" enable-background="new    " d="M255.644,315.628H135.222c-2.597,0-4.704-2.105-4.704-4.707
			V245.08c0-2.6,2.107-4.707,4.704-4.707h120.422c2.594,0,4.703,2.107,4.703,4.707v65.841
			C260.347,313.522,258.238,315.628,255.644,315.628z"/>
		<path fill="#FFFFFF" d="M180.782,263.075v29.853c0,1.869,2.073,2.986,3.634,1.96l22.689-14.928c1.408-0.928,1.408-2.992,0-3.918
			l-22.689-14.926C182.856,260.089,180.782,261.208,180.782,263.075z"/>
		<g>
			<path fill="#5CC1D4" d="M137.271,308.839c0-1.287,1.037-2.332,2.324-2.332s2.332,1.045,2.332,2.332s-1.045,2.33-2.332,2.33
				S137.271,310.126,137.271,308.839z"/>
			<path fill="#5CC1D4" d="M245.612,309.465H140.226c-0.347,0-0.631-0.278-0.631-0.626l0,0c0-0.348,0.284-0.628,0.631-0.628h105.386
				c0.343,0,0.626,0.281,0.626,0.628l0,0C246.239,309.187,245.954,309.465,245.612,309.465z"/>
		</g>
	</g>
	<rect x="251.932" y="331.2" opacity="0.4" fill="#FFFFFF" enable-background="new    " width="67.165" height="100.269"/>
	<g>
		<g>
			<g>
				<path fill="#2C488C" d="M291.959,363.411h-0.916v-4.131c0-1.483,1.204-2.688,2.685-2.688h11.366
					c0.804,0,1.507-0.544,1.708-1.315l1.802-6.834c0.141-0.533,0.024-1.094-0.312-1.533c-0.335-0.436-0.851-0.686-1.401-0.686
					h-14.825v-0.918h14.825c0.841,0,1.619,0.377,2.128,1.045c0.514,0.664,0.688,1.51,0.473,2.324l-1.797,6.834
					c-0.311,1.178-1.38,2-2.6,2h-11.366c-0.973,0-1.769,0.795-1.769,1.77L291.959,363.411L291.959,363.411z"/>
			</g>
			<path fill="#FAC13E" d="M302.646,349.642h-19.528c-1.647,0-2.987-1.336-2.987-2.984v-1.786c0-1.647,1.34-2.981,2.987-2.981
				h19.528c1.647,0,2.982,1.334,2.982,2.981v1.786C305.628,348.306,304.293,349.642,302.646,349.642z"/>
			<path fill="#2C488C" d="M291.505,380.563L291.505,380.563c-1.4,0-2.528-1.133-2.528-2.528v-15.313
				c0-1.396,1.127-2.525,2.528-2.525l0,0c1.396,0,2.523,1.131,2.523,2.525v15.313C294.029,379.431,292.901,380.563,291.505,380.563z
				"/>
		</g>
		<g>
			<path fill="#FACDA9" d="M388.198,413.768c0,0,1.737,5.354,1.582,6.578c-0.146,1.229-1.234,5.404-2.016,6.476
				c-0.778,1.071-1.166-4.356-1.782-5.175c-0.615-0.815-0.128,2.045-0.562,2.312c-0.438,0.261-1.338-2.104-1.729-2.943
				c-0.393-0.833,0.948-3.921,0.952-6.066C384.649,412.79,388.198,413.768,388.198,413.768z"/>
			<path fill="#243862" d="M347.311,371.24c-0.48-6.136,6.188-10.345,11.457-7.152c0.107,0.065,0.211,0.13,0.317,0.198
				c7.888,5.072,24.891,28.754,26.062,31.122c1.171,2.372,4.627,21.244,4.627,21.244s-4.271,1.562-6.269-0.057
				c0,0-6.924-17.898-7.949-18.792c-1.023-0.896-27.698-15.863-27.923-21.472C347.575,374.845,347.455,373.062,347.311,371.24z"/>
		</g>
		<g>
			<path fill="#2B4B7D" d="M394.911,509.822c0,0,3.177,2.901,2.559,4.963c-0.621,2.062-3.488,3.438-3.878,5.96
				c-0.387,2.513-1.938,3.884-3.331,3.884c-1.396,0-6.653,0-6.653,0s-1.025-1.766,1.454-2.304c2.48-0.535,3.415-3.495,3.259-6.237
				c-0.154-2.754,0.232-6.415,0.232-6.415l5.271-1.223L394.911,509.822z"/>
			<path fill="#2B4B7D" d="M355.921,517.325c0,0,0.563,6.604-0.826,7.293l-17.858-0.039c0,0,0-2.06,2.866-2.519
				c2.87-0.459,7.908-2.143,8.761-5.877C349.715,512.443,355.921,517.325,355.921,517.325z"/>
			<path fill="#FAC13E" d="M340.838,424.076c0,0,0.945,11.568,2.053,25.485c1.504,18.894,3.312,42.101,3.494,46.494
				c0.306,7.64,1.552,19.854,1.552,19.854s2.94,2.905,8.835,1.676c0,0,5.25-17.437,6.755-35.875c0.02-0.309,0.048-0.608,0.066-0.912
				c1.396-18.778,3.564-58.324,3.564-58.324L340.838,424.076z"/>
			<path fill="#F9B03D" d="M340.838,424.076c0,0,0.945,11.568,2.053,25.485l20.636,32.147c0.02-0.309,0.048-0.608,0.066-0.912
				c1.396-18.779,3.564-58.324,3.564-58.324L340.838,424.076z"/>
			<path fill="#FAC13E" d="M345.138,425.456c0,0,16.982,41.902,28.144,61.6c11.164,19.689,14.654,25.184,14.654,25.184
				s6.396-2.521,6.977-4.236c0,0-4.269-38.016-11.742-47.286c-4.227-5.23-9.188-20.954-9.424-26.447
				c-0.229-5.495-1.509-16.373-1.509-16.373L345.138,425.456z"/>
		</g>
		<path fill="#FACDA9" d="M359.783,362.589c0,0-11.378,5.773-18.039,3.848c0,0,1.586-2.092,4.409-3.675
			c-0.255-1.323-0.451-2.475-0.574-3.452c-0.329-2.25-0.353-3.527-0.353-3.527l4.362-3.574l4.133-3.42
			C353.577,358.173,359.783,362.589,359.783,362.589z"/>
		<path fill="#256388" d="M371.079,421.214c-4.591,2.775-8.938,4.868-14.026,6.041c-6.004,1.425-13.382,1.003-15.851,1.38
			c-0.252,0.031-0.489-0.031-0.716-0.181c-0.197-0.103-1.285-7.421-2.375-16.666c-0.048-0.366-0.099-0.743-0.122-1.121l-0.013-0.126
			c-0.422-3.61-0.8-7.402-1.12-11.209c-0.263-2.958-0.483-5.883-0.632-8.633c-0.188-3.44-0.269-6.599-0.188-9.199
			c0.031-1.188,0.103-2.254,0.212-3.183c0.649-5.397,3.228-9.256,5.647-12.125l2.009-2.291c2.336,0.146,4.715-0.293,6.962-1.773
			c2.454-1.619,5.104-3.355,5.606-3.066c3.762,2.062,6.829,7.396,9.015,14.444c1.258,4.06,2.222,8.663,2.837,13.539
			c0.199,1.519,0.368,3.067,0.495,4.612c0.03,0.287,0.049,0.57,0.074,0.854c0.292,4.225,0.775,8.183,1.312,11.722
			c0.72,4.765,1.536,8.765,2.114,11.578c0.289,1.436,0.514,2.539,0.646,3.337C373.081,419.837,371.698,420.824,371.079,421.214z"/>
		<path fill="#EE9960" d="M353.87,352.374c0,0-2.793,5.35-8.291,6.936c-0.328-2.25-0.353-3.527-0.353-3.527l4.362-3.574
			L353.87,352.374z"/>
		<path fill="#FACDA9" d="M343.203,355.669c0,0,10.988,1.576,11.887-5.184c0.897-6.756,2.918-11.102-4.062-12.394
			c-6.979-1.292-8.688,1.111-9.547,3.296C340.628,343.571,340.366,355.083,343.203,355.669z"/>
		<path fill="#2D3A64" d="M358.809,337.129c0.096-0.114,0.323-0.21,0.834-0.25c0,0-0.411-0.244-0.955-0.25
			c-0.121-0.706-0.521-1.958-1.754-2.235c0,0,0.666,0.336,0.762,1.09c-1.442-1.428-4.492-2.424-12.878-1.594
			c-11.048,1.09-7.26,8.104-5.812,8.922c1.454,0.816,5.012-1.574,7.684-1.412c2.674,0.16,3.255,4.006,4.17,4.517
			s0.545-0.417,1.76-0.995c1.212-0.578,1.371,1.451,1.042,2.775c-0.328,1.328,1.392,3.031,1.392,3.031s0,0,1.663-1.86
			c1.669-1.865,3.12-9.658,2.312-11.294C358.949,337.426,358.881,337.278,358.809,337.129z"/>
		<path fill="#243862" d="M355.317,382.103c0,0-9.271,7.053-19.092,8.597c-0.188-3.44-0.269-6.599-0.188-9.199L355.317,382.103z"/>
		<g>
			<path fill="#FACDA9" d="M298.403,373.005c-0.146-0.16-2.033-6.479-5.3-6.015c-2.136,0.3-5.617,1.53-4.696,4.343
				c0.365,1.104,6.86,4.908,6.86,4.908L298.403,373.005z"/>
			<path fill="#256388" d="M356.466,368.476c5.278,3.164,4.855,11.035-0.795,13.48c-0.117,0.055-0.231,0.102-0.354,0.146
				c-8.696,3.492-37.854,3.653-40.465,3.234c-2.607-0.42-19.996-8.525-19.996-8.525s1.201-4.385,3.678-5.074
				c0,0,18.598,4.712,19.921,4.394c1.32-0.313,28.964-13.397,33.673-10.337C353.373,366.603,354.898,367.539,356.466,368.476z"/>
		</g>
	</g>
	<g>
		<path fill="#FFFFFF" d="M552.58,161.07h-23.207c-0.974,0-1.771-0.796-1.771-1.774l0,0c0-0.973,0.799-1.773,1.771-1.773h23.207
			c0.978,0,1.774,0.8,1.774,1.773l0,0C554.355,160.274,553.558,161.07,552.58,161.07z"/>
		<path fill="#FFFFFF" d="M552.58,168h-23.207c-0.974,0-1.771-0.798-1.771-1.773l0,0c0-0.975,0.799-1.772,1.771-1.772h23.207
			c0.978,0,1.774,0.797,1.774,1.772l0,0C554.355,167.202,553.558,168,552.58,168z"/>
		<path fill="#FFFFFF" d="M552.58,175.108h-23.207c-0.974,0-1.771-0.797-1.771-1.772l0,0c0-0.978,0.799-1.775,1.771-1.775h23.207
			c0.978,0,1.774,0.797,1.774,1.775l0,0C554.355,174.311,553.558,175.108,552.58,175.108z"/>
	</g>
	<path fill="#FFFFFF" d="M461.704,342.437h-55.245c-1.293,0-2.354-1.062-2.354-2.354l0,0c0-1.292,1.062-2.354,2.354-2.354h55.245
		c1.293,0,2.354,1.061,2.354,2.354l0,0C464.058,341.375,462.997,342.437,461.704,342.437z"/>
	<path fill="#FFFFFF" d="M191.649,181.021h-55.246c-1.294,0-2.353-1.059-2.353-2.353l0,0c0-1.292,1.059-2.353,2.353-2.353h55.246
		c1.292,0,2.352,1.061,2.352,2.353l0,0C194,179.962,192.94,181.021,191.649,181.021z"/>
	<path fill="#FFFFFF" d="M461.704,365.763h-55.245c-1.293,0-2.354-1.057-2.354-2.352l0,0c0-1.294,1.062-2.35,2.354-2.35h55.245
		c1.293,0,2.354,1.056,2.354,2.35l0,0C464.058,364.706,462.997,365.763,461.704,365.763z"/>
	<path fill="#FFFFFF" d="M461.704,354.099h-66.073c-1.294,0-2.354-1.056-2.354-2.351l0,0c0-1.295,1.061-2.351,2.354-2.351h66.073
		c1.293,0,2.354,1.056,2.354,2.351l0,0C464.058,353.043,462.997,354.099,461.704,354.099z"/>
	<g>
		<path fill="#FFFFFF" d="M175.25,195.809h-31.178c-0.98,0-1.784-0.805-1.784-1.791v-1.124c0-0.982,0.804-1.79,1.784-1.79h31.178
			c0.983,0,1.788,0.808,1.788,1.79v1.124C177.038,195.004,176.234,195.809,175.25,195.809z"/>
		<circle fill="#FFFFFF" cx="134.315" cy="193.458" r="2.35"/>
	</g>
	<g>
		<path fill="#FFFFFF" d="M181.167,205.169h-36.939c-1.069,0-1.939-0.873-1.939-1.943v-0.821c0-1.067,0.87-1.939,1.939-1.939h36.939
			c1.065,0,1.938,0.873,1.938,1.939v0.821C183.105,204.296,182.233,205.169,181.167,205.169z"/>
		<circle fill="#FFFFFF" cx="134.315" cy="202.815" r="2.35"/>
	</g>
	<g>
		<path fill="#FFFFFF" d="M175.25,215.326h-31.178c-0.98,0-1.784-0.803-1.784-1.789v-1.125c0-0.983,0.804-1.788,1.784-1.788h31.178
			c0.983,0,1.788,0.805,1.788,1.788v1.125C177.038,214.522,176.234,215.326,175.25,215.326z"/>
		<circle fill="#FFFFFF" cx="134.315" cy="212.977" r="2.35"/>
	</g>
	<g>
		<g>
			<path fill="#256388" d="M231.955,201.076c-0.409,0.057-0.823,0.081-1.244,0.078c-2.213-0.028-4.288-0.914-5.834-2.5
				c-3.198-3.271-3.137-8.535,0.135-11.73v-0.001c3.271-3.197,8.532-3.136,11.729,0.135c3.199,3.272,3.138,8.538-0.133,11.732
				C235.321,200.046,233.703,200.834,231.955,201.076z M225.966,187.899c-2.735,2.67-2.783,7.067-0.116,9.8
				c1.295,1.324,3.026,2.066,4.881,2.085c1.845,0.022,3.6-0.677,4.921-1.97c2.731-2.672,2.782-7.07,0.115-9.802
				C233.095,185.279,228.696,185.229,225.966,187.899L225.966,187.899z"/>
		</g>
		
			<rect x="220.611" y="196.47" transform="matrix(-0.6988 -0.7153 0.7153 -0.6988 231.3693 501.6758)" fill="#256388" width="1.368" height="11.322"/>
		<path fill="#256388" d="M214.449,208.839L214.449,208.839c-0.473-0.481-0.463-1.251,0.019-1.725l4.77-4.659
			c0.48-0.473,1.253-0.464,1.729,0.019l0,0c0.469,0.482,0.461,1.253-0.021,1.726l-4.77,4.66
			C215.693,209.332,214.919,209.322,214.449,208.839z"/>
	</g>
	<g>
		<path fill="#256388" d="M533.961,524.791L533.961,524.791c-1.06,0.005-2.166-0.759-2.479-1.713l-63.746-194.095
			c-0.314-0.949,0.295-1.725,1.351-1.729l0,0c1.054-0.005,2.169,0.759,2.479,1.708l63.748,194.099
			C535.623,524.01,535.021,524.783,533.961,524.791z"/>
		<path fill="#256388" d="M585.338,524.49L585.338,524.49c-1.057,0.005-2.17-0.758-2.479-1.703l-63.747-194.101
			c-0.312-0.951,0.291-1.724,1.346-1.732l0,0c1.062-0.003,2.173,0.761,2.485,1.711l63.744,194.093
			C587.004,523.711,586.4,524.485,585.338,524.49z"/>
		<path fill="#256388" d="M530.021,355.731l-51.59,0.302c-0.998,0.002-2.048-0.722-2.342-1.613l0,0
			c-0.296-0.896,0.277-1.629,1.271-1.638l51.593-0.297c0.995-0.004,2.053,0.722,2.344,1.613l0,0
			C531.592,354.99,531.019,355.728,530.021,355.731z"/>
		<path fill="#256388" d="M541.153,389.621l-51.592,0.3c-1,0.006-2.054-0.721-2.343-1.613l0,0c-0.294-0.892,0.279-1.629,1.272-1.635
			l51.594-0.301c0.995-0.002,2.046,0.722,2.339,1.615l0,0C542.72,388.881,542.146,389.616,541.153,389.621z"/>
		<path fill="#256388" d="M551.868,422.261l-51.588,0.298c-0.996,0.006-2.053-0.721-2.345-1.612l0,0
			c-0.288-0.895,0.282-1.629,1.279-1.635l51.593-0.298c0.989-0.011,2.045,0.721,2.337,1.614l0,0
			C553.44,421.519,552.866,422.254,551.868,422.261z"/>
		<path fill="#256388" d="M563.939,459.005l-51.593,0.294c-0.993,0.008-2.046-0.713-2.341-1.605l0,0
			c-0.291-0.901,0.277-1.634,1.276-1.643l51.589-0.293c0.997-0.006,2.049,0.722,2.343,1.616l0,0
			C565.507,458.267,564.933,458.999,563.939,459.005z"/>
		<path fill="#256388" d="M576.569,497.461l-51.594,0.303c-0.99,0-2.045-0.722-2.341-1.614l0,0c-0.291-0.896,0.28-1.626,1.275-1.634
			l51.593-0.302c0.994-0.005,2.048,0.724,2.343,1.616l0,0C578.14,496.721,577.566,497.456,576.569,497.461z"/>
	</g>
	<g>
		<path fill="#2C4F96" d="M465.511,240.09L465.511,240.09c-0.405,0.078-0.799-0.189-0.878-0.595l-0.827-4.262
			c-0.077-0.407,0.188-0.803,0.591-0.878l0,0c0.406-0.078,0.805,0.188,0.881,0.592l0.828,4.266
			C466.181,239.615,465.91,240.01,465.511,240.09z"/>
		
			<rect x="463.349" y="227.119" transform="matrix(-0.9827 0.1853 -0.1853 -0.9827 961.8535 370.611)" fill="#2C4F96" width="0.514" height="6.278"/>
		<path fill="#F7B17F" d="M463.261,192.415c0,0-0.486-4.244-1.518-5.866c-1.029-1.625-4.919-2.667-5.162-2.426
			c-0.766,0.737,2.249,3.344,2.365,4.305c0.12,0.96-1.528,0.297-0.733,2.17c0.666,1.583,2.866,3.633,2.866,3.633L463.261,192.415z"
			/>
		<path fill="#E58638" d="M461.386,191.944c1.417-1.115,1.721-1.092,1.721-1.092s13.117,11.365,14.395,12.375
			c1.277,1.015,20.979,6.727,20.979,6.727l3.132,16.017c0,0-26.665-12.878-29.848-15.506c-5.262-4.343-11.904-16.494-11.904-16.494
			S460.271,192.817,461.386,191.944z"/>
		<path fill="#19365E" d="M498.908,345.876c0,0-0.229,5.475-1.282,6.805L483,352.767c0.105-0.566,0.17-1.871,2.191-2.223
			c2.554-0.445,5.554-2.229,7.103-5.605C493.92,341.385,498.908,345.876,498.908,345.876z"/>
		<path fill="#19365E" d="M527.602,345.089c0,0,1.019,7.27-0.363,7.396c-0.188,0.017-5.895,0.109-8.365,0.152
			c-2.909,0.043-7.683-0.055-7.683-0.055c-0.605,0.023-1-0.626-0.697-1.145c0.343-0.567,0.983-1.178,2.203-1.41
			c2.547-0.488,6.789-2.361,8.276-5.764C522.538,340.685,527.602,345.089,527.602,345.089z"/>
		<path fill="#1A2944" d="M491.302,270.563c0,0,4.066,14.226,15.716,38.931c11.655,24.709,12.159,36.618,12.159,36.618
			s1.766,0.625,4.104,0.375c2.532-0.27,4.32-1.398,4.32-1.398s-0.756-29.412-6.261-41.879c-5.503-12.469-6.625-46.586-6.625-46.586
			L491.302,270.563z"/>
		<path fill="#256388" d="M484.771,258.32c0,0-0.322,22.033,3.486,49.083c3.815,27.047,2.031,39.628,2.031,39.628
			s1.013,0.737,4.117,0.727c3.636-0.016,5.503-1.518,5.503-1.518s5.452-27.062,3.895-40.601
			c-1.564-13.541,7.469-46.458,7.469-46.458L484.771,258.32z"/>
		<path fill="#FACDA9" d="M502.786,206.765l-4.307,3.189l-6.22-1.309c0.085-0.569,0.495-2.921,0.867-5.053
			c0.022-0.125,0.047-0.251,0.066-0.372c0.319-1.812,0.597-3.372,0.597-3.372l5.812-2.895l2.167-1.081
			c-0.002,0.036-0.164,2.01-0.188,2.299C501.174,203.289,502.786,206.765,502.786,206.765z"/>
		<path fill="#FAC13E" d="M515.121,261.04c-1.406,6.441-31.54,3.615-31.147-0.317c0.014-0.13,0.095-1.95,0.205-4.401
			c0.229-5.306,0.571-13.594,0.618-14.242c0-0.012,0.002-0.021,0.002-0.034c0.547-5.473,1.063-10.827,1.099-14.323
			c0.028-3.032,0.451-6.131,1.003-8.945c0.51-2.6,1.145-4.958,1.689-6.796c0.386-1.296,1.104-2.433,2.056-3.327
			c0.677-0.637,1.469-1.151,2.349-1.498c0.242-0.102,0.481-0.185,0.728-0.254c3.545-1.03,8.457-2.303,9.785-1.914
			c3.597,1.06,6.276,7.401,8.173,15.483C515.225,235.599,516.041,256.845,515.121,261.04z"/>
		<path fill="#F5A46D" d="M501.147,198.263c-1.276,2.443-6.032,4.554-8.02,5.33c0.022-0.125,0.047-0.251,0.066-0.372
			c0.319-1.813,0.597-3.372,0.597-3.372l5.812-2.895C500.888,196.934,501.673,197.258,501.147,198.263z"/>
		<path fill="#FACDA9" d="M490.97,199.509c0,0,10.484,3.272,12.423-3.291c1.934-6.561,4.596-10.556-2.021-12.924
			c-6.612-2.364-8.658-0.247-9.838,1.788C490.357,187.113,488.294,198.489,490.97,199.509z"/>
		<path fill="#19365E" d="M491.944,184.449c0,0,0.672,7.634,2.252,7.303c1.579-0.332,3.006-0.579,2.778,1.726
			c-0.231,2.3-2.42,4.958,2.446,5.365c4.865,0.408,11.861-12.142,10.523-14.517C506.082,177.469,486.37,176.083,491.944,184.449z"/>
		<path fill="#E58638" d="M484.179,256.322c0.229-5.306,0.571-13.594,0.618-14.242c0-0.012,0.002-0.021,0.002-0.034l17.805-10.642
			C502.604,231.404,503.287,256.25,484.179,256.322z"/>
		<path fill="#FACDA9" d="M470.027,234.049c0,0-3.617-2.447-4.307-2.66c-0.688-0.212-2.935-0.445-3.041-0.268
			c-0.105,0.178-0.411,0.72-0.017,0.903c0.388,0.184,0.883,0.122,0.732,0.249c-0.147,0.127-1.625-0.574-1.968,0.178
			c-0.338,0.754-0.639,3.338,1.094,4.123c1.737,0.784,6.021,0.075,6.329,0.165C471.472,237.5,470.027,234.049,470.027,234.049z"/>
		<path fill="#FAC13E" d="M469.991,233.387c0,0,17.655,3.002,19.224,2.239c2.491-1.214-0.971-19.127-0.971-19.127
			s-0.146-4.062,4.593-5.021c4.124-0.83,8.098,2.257,8.098,2.257s3.619,3.234,3.154,6.822c-1.025,7.956-2.619,24.138-7.938,26.618
			c-6.864,3.201-26.723-8.869-26.723-8.869s-0.661-0.812-0.569-2.313C468.947,234.663,469.991,233.387,469.991,233.387z"/>
		<path fill="#F7B17F" d="M458.131,190.383c0,0-1.131-2.246-1.314-2.667c-0.176-0.421,0.257-0.332,0.693-0.095
			c0.438,0.234,1.029,1.539,1.704,1.382C459.74,188.879,458.131,190.383,458.131,190.383z"/>
	</g>
</g>
</svg>
